<svg preserveAspectRatio="xMidYMid meet" viewBox="20.732 19.58743169398907 228.05200000000002 78.64207650273224" xmlns="http://www.w3.org/2000/svg" version="1.0" style="max-height: 500px" width="228.05200000000002" height="78.64207650273224">
<metadata>
Created by potrace 1.10, written by Peter Selinger 2001-2011
</metadata>
<g stroke="none" fill="#2098ee"  transform="translate(0.000000,107.000000) scale(0.050000,-0.050000)">
<path d="M2050 1690 c-66 -15 -129 -28 -140 -29 -11 0 -96 -47 -190 -103 -229&#10;-137 -464 -261 -448 -235 23 38 -600 -41 -721 -91 -75 -32 -95 -71 -36 -73 26&#10;-1 23 -6 -11 -20 -26 -10 -41 -28 -34 -39 7 -11 4 -20 -7 -20 -53 0 1 -219 54&#10;-221 18 -1 2 -12 -37 -25 -82 -28 -94 -175 -19 -234 26 -20 34 -44 26 -74 -9&#10;-35 -1 -47 40 -57 67 -17 85 -3 101 75 83 415 610 465 716 69 l22 -83 202 6&#10;c178 6 206 11 239 50 33 39 39 40 60 11 26 -35 263 -49 284 -16 16 26 449 25&#10;449 -1 0 -13 185 -20 516 -20 l516 0 22 85 c46 169 245 276 427 230 90 -23&#10;239 -151 239 -205 0 -71 506 -67 516 5 5 30 -3 45 -25 45 -24 0 -30 20 -28 85&#10;l4 85 8 -76 c7 -74 9 -76 81 -70 110 9 128 155 20 158 -36 0 -55 6 -41 11 50&#10;20 30 107 -25 107 -55 0 -75 -87 -25 -107 15 -6 11 -10 -10 -11 -27 -2 -35 14&#10;-35 68 0 64 5 70 60 70 68 0 83 88 37 220 l-23 66 -462 -13 c-254 -7 -615 -14&#10;-802 -15 l-340 -2 -27 187 c-14 103 -35 198 -47 212 -30 36 -941 32 -1106 -5z&#10;m246 -205 l-6 -175 -120 -13 c-66 -7 -153 -27 -194 -45 -135 -58 -456 -46&#10;-456 18 0 60 37 100 193 205 216 147 299 177 503 182 l86 3 -6 -175z m715 153&#10;c8 -12 18 -79 24 -148 13 -166 -7 -178 -310 -184 l-225 -5 0 179 0 180 249 0&#10;c160 0 254 -8 262 -22z m-1519 -693 c-6 -5 -26 -4 -46 4 -34 13 -34 15 -1 40&#10;24 17 36 57 39 123 3 86 5 83 11 -29 4 -70 2 -132 -3 -138z m848 215 c0 -11&#10;-31 -20 -70 -20 -38 0 -70 9 -70 20 0 11 32 20 70 20 39 0 70 -9 70 -20z m730&#10;0 c-7 -11 -43 -20 -81 -20 -38 0 -69 9 -69 20 0 11 37 20 81 20 49 0 76 -8 69&#10;-20z m-2489 -173 c-36 -46 -41 -48 -44 -15 -12 142 -11 148 26 148 20 0 38 11&#10;40 25 2 14 7 -4 11 -40 6 -45 -4 -82 -33 -118z"/>
<path d="M880 838 c-175 -70 -259 -303 -167 -461 173 -296 597 -186 597 155 0&#10;234 -219 390 -430 306z m100 -155 c0 -77 -17 -88 -67 -41 -51 47 -73 13 -25&#10;-40 18 -19 32 -56 32 -80 0 -27 15 -50 36 -55 28 -7 35 -24 28 -68 -5 -35 0&#10;-59 14 -59 12 0 22 27 22 60 0 61 0 61 51 28 63 -42 54 -72 -29 -96 -209 -60&#10;-342 230 -168 368 72 56 106 51 106 -17z m158 -1 c79 -74 86 -149 12 -130 -31&#10;8 -50 4 -50 -10 0 -12 23 -22 50 -22 28 0 50 -11 49 -25 -1 -32 -57 -132 -58&#10;-104 -1 12 -19 41 -42 65 -22 24 -31 44 -19 44 15 0 16 11 2 35 -15 26 -9 46&#10;23 80 56 60 28 84 -33 27 l-47 -45 -9 72 c-10 91 34 96 122 13z"/>
<path d="M3843 817 c-198 -98 -239 -332 -89 -499 255 -282 697 28 520 363 -85&#10;161 -265 218 -431 136z m240 -99 c41 -21 41 -21 -3 -68 -25 -26 -35 -51 -23&#10;-58 11 -7 37 10 59 37 l38 49 23 -50 c79 -174 -87 -358 -259 -287 l-60 25 41&#10;43 c54 58 27 84 -31 29 l-45 -42 -21 41 c-28 51 -28 105 -1 175 l20 54 48 -45&#10;c26 -24 52 -36 58 -25 7 10 -6 35 -29 56 -74 67 80 123 185 66z"/>
<path d="M3971 682 c-8 -25 -10 -50 -4 -55 21 -21 -59 -78 -100 -71 -23 4 -48&#10;-2 -56 -14 -11 -19 25 -28 82 -20 7 1 21 -13 31 -30 23 -40 114 -42 129 -2 6&#10;17 36 30 69 30 32 0 58 10 58 22 0 13 -23 19 -55 15 -58 -9 -123 38 -110 78 4&#10;13 -1 39 -11 58 -17 30 -21 29 -33 -11z"/>
<path d="M4054 467 c-19 -18 25 -67 59 -67 22 0 23 7 2 40 -26 42 -40 48 -61&#10;27z"/>
<path d="M3960 422 c0 -50 26 -85 42 -59 27 42 21 77 -12 77 -16 0 -30 -8 -30&#10;-18z"/>
</g>
</svg>