<?xml version="1.0" encoding="utf-8"?>
<svg width="26px" height="25px" viewBox="0 0 26 25" version="1.1" xmlns:xlink="http://www.w3.org/1999/xlink" xmlns="http://www.w3.org/2000/svg">
  <desc>Created with Lunacy</desc>
  <path d="M4.93359 5.07329C7.03173 2.00841 10.498 0 14.4145 0C20.8029 0 25.9999 5.33867 25.9999 11.9011C25.9999 16.4344 23.5193 20.3826 19.8797 22.3915C19.9364 22.1394 19.9646 21.874 19.9532 21.593C19.9377 21.2085 19.85 20.8356 19.6942 20.4709C22.1393 18.8758 23.8628 16.2143 24.2256 13.123L22.2125 11.9009L24.2255 10.6789C23.6828 6.05509 20.1049 2.37989 15.6037 1.82263L14.4143 3.89026L13.2249 1.82268C10.2966 2.18529 7.76572 3.87211 6.20046 6.27635C5.79108 5.76335 5.36782 5.36429 4.93359 5.07329ZM17.371 19.6C14.8543 17.5222 14.046 18.3649 12.9471 19.5105C12.8799 19.5806 12.8115 19.6518 12.7417 19.7236C11.8956 20.5929 9.75472 18.7775 7.90613 16.8785C6.05741 14.9792 4.29047 12.7802 5.13641 11.911C5.20608 11.8395 5.27522 11.7695 5.34328 11.7006C6.45899 10.5716 7.27965 9.74107 5.25608 7.15599C3.32389 4.68589 1.97158 6.14673 0.864559 7.34261C0.741907 7.4751 0.622265 7.60435 0.505179 7.72463C-0.850049 9.11631 0.433764 14.3025 5.42347 19.4289C10.4139 24.5547 15.4624 25.8726 16.8169 24.4815C16.9341 24.361 17.0601 24.2379 17.1893 24.1117C18.3533 22.9746 19.775 21.5856 17.371 19.6ZM12.0163 9.93889C12.0163 10.8905 9.23706 11.325 9.23706 13.7636C9.23706 13.9857 9.26408 14.2166 9.30915 14.4752L13.7611 14.4752L13.7611 13.0895L11.0269 13.0895C11.0719 12.2396 13.662 11.8422 13.662 9.782C13.662 8.37784 12.5199 7.75879 11.4677 7.75879C9.79504 7.75879 9.20142 9.18149 9.20142 9.18149L10.3706 9.98515C10.3706 9.98515 10.712 9.28326 11.3237 9.28326C11.6565 9.28326 12.0163 9.47712 12.0163 9.93889ZM14.4185 11.8977L16.9009 7.86938L18.8255 7.86938L18.8255 11.5373L19.5898 11.5373L19.5898 12.8767L18.8255 12.8767L18.8255 14.4752L17.2694 14.4752L17.2694 12.8767L14.4185 12.8767L14.4185 11.8977L14.4185 11.8977ZM17.2696 10.0591L17.2696 11.5373L16.0198 11.5374L16.0198 11.5189L16.9908 10.0036C17.1709 9.72647 17.3056 9.31982 17.3056 9.31982L17.3236 9.31982C17.3236 9.31982 17.2696 9.69872 17.2696 10.0591Z" id="ico-/-support" fill="#ffffff" fill-rule="evenodd"  />
</svg>
