<?xml version="1.0" encoding="UTF-8"?>
<svg width="80px" height="80px" viewBox="0 0 80 80" version="1.1" xmlns="http://www.w3.org/2000/svg" xmlns:xlink="http://www.w3.org/1999/xlink">
    <!-- Generator: Sketch 60.1 (88133) - https://sketch.com -->
    <title>ico / svg / open</title>
    <desc>Created with Sketch.</desc>
    <g id="ico-/-svg-/-open" stroke="none" stroke-width="1" fill="none" fill-rule="evenodd">
        <path d="M74.7475733,38.1607714 L71.5571455,36.3082474 L69.7344296,28.5204758 C69.2491856,26.4476319 67.4235537,25 65.2948738,25 L56.1266462,25 C54.9100315,25 53.9237703,25.9862611 53.9237703,27.2028759 L53.9237703,40.822112 L53.9237703,40.822112 C37.6158469,40.822112 21.3079234,40.822112 5,40.822112 C4.44771525,40.822112 4,41.2698273 4,41.822112 L4,49.8015508 L4,49.8015508 C4,50.4099148 4.49323598,50.9030427 5.10149195,50.9030427 L8.64162377,50.9030427 C9.15354375,53.4186866 11.3826636,55.3178665 14.0471315,55.3178665 C16.7115994,55.3178665 18.9408273,53.4186866 19.4527472,50.9030427 L57.7521542,50.9030427 C58.2640741,53.4187946 60.493194,55.3178665 63.1576619,55.3178665 C65.8221298,55.3178665 68.0513577,53.4187946 68.5632776,50.9031507 L74.1946134,50.9031507 C74.8028693,50.9031507 75.2961053,50.4100228 75.2961053,49.8016588 L75.2961053,39.1133313 C75.2961053,38.7208593 75.0871253,38.3579793 74.7475733,38.1607714 Z M14.0471315,53.1149906 C12.2203116,53.1149906 10.7340157,51.6285867 10.7340157,49.8017668 C10.7340157,47.9749469 12.2203116,46.488543 14.0471315,46.488543 C15.8740594,46.488543 17.3603553,47.9748389 17.3603553,49.8017668 C17.3603553,51.6286947 15.8740594,53.1149906 14.0471315,53.1149906 Z M53.9237703,44.750175 L27.9884188,44.750175 C27.3801629,44.750175 26.8869269,45.243303 26.8869269,45.851667 C26.8869269,46.460031 27.3801629,46.9531589 27.9884188,46.9531589 L53.9237703,46.9531589 L53.9237703,48.7001668 L19.4527472,48.7001668 C18.9408273,46.184523 16.7115994,44.2854511 14.0471315,44.2854511 C11.3826636,44.2854511 9.15354375,46.184415 8.64162377,48.7001668 L6.20298389,48.7001668 L6.20298389,43.0031671 L53.9237703,43.0031671 L53.9237703,44.750175 Z M65.2950898,27.2031999 C66.3952857,27.2030919 67.3388817,27.9513159 67.5894417,29.0225678 L69.2039336,35.9207435 L62.5165739,35.9207435 L62.5165739,27.2031999 L65.2950898,27.2031999 Z M63.1576619,53.1149906 C61.405038,53.1149906 59.966694,51.7467387 59.8526461,50.0224108 C59.8672261,49.9511308 59.8747861,49.8773668 59.8747861,49.8017668 C59.8747861,49.7261668 59.8671181,49.6524028 59.8526461,49.5811228 C59.966694,47.8567949 61.405038,46.488543 63.1576619,46.488543 C64.9845898,46.488543 66.4708857,47.9748389 66.4708857,49.8017668 C66.4708857,51.6286947 64.9845898,53.1149906 63.1576619,53.1149906 Z M73.0930134,43.4723191 L70.9974895,43.4723191 L70.9974895,42.3062432 L73.0930134,42.3062432 L73.0930134,43.4723191 Z M69.8959976,40.1032593 C69.2877416,40.1032593 68.7945056,40.5963872 68.7945056,41.2047512 L68.7945056,44.573811 C68.7945056,45.182175 69.2877416,45.675303 69.8959976,45.675303 L73.0930134,45.675303 L73.0930134,48.7001668 L68.5632776,48.7001668 C68.0513577,46.184523 65.8221298,44.2854511 63.1576619,44.2854511 C60.493194,44.2854511 58.2640741,46.184415 57.7521542,48.7001668 L56.1267542,48.7001668 L56.1267542,27.2030919 L60.313482,27.2030919 L60.313482,37.0222354 C60.313482,37.6305994 60.806718,38.1237274 61.414974,38.1237274 L70.2963535,38.1237274 L73.0930134,39.7477233 L73.0930134,40.1032593 L69.8959976,40.1032593 Z" id="ico-/-services-/-open" fill="#2098ee"></path>
    </g>
</svg>