<svg version="1.1" id="Layer_1" xmlns="http://www.w3.org/2000/svg" xmlns:xlink="http://www.w3.org/1999/xlink" x="0px" y="0px"
	 width="100%" viewBox="0 0 314 249" enable-background="new 0 0 314 249" xml:space="preserve">
<path fill="none" opacity="1.000000" stroke="#000000" stroke-linecap="round" stroke-linejoin="round" stroke-width="3.000000"
	d="
M290.000000,105.000000 
	C283.850861,105.815735 277.663879,105.332664 271.503357,105.582481 
	C268.246277,105.714561 267.298859,104.098747 265.874146,101.570930 
	C262.009033,94.713203 259.551788,87.342384 257.038910,79.986710 
	C253.855606,70.668587 249.282150,62.021553 244.445999,53.530754 
	C238.005188,42.222607 227.037949,37.997093 214.993515,36.039944 
	C198.278503,33.323853 181.395950,32.964725 164.499985,32.994534 
	C149.666702,33.020702 134.809174,32.472191 120.006851,33.149643 
	C105.439362,33.816341 90.819946,33.896355 76.447075,37.805412 
	C64.180023,41.141735 56.644585,48.696720 50.892792,59.442616 
	C45.053024,70.352859 41.261765,81.993927 36.901463,93.462540 
	C35.271656,97.749298 33.772152,102.339310 30.000000,105.500000 
"/>
<path fill="none" opacity="1.000000" stroke="#000000" stroke-linecap="round" stroke-linejoin="round" stroke-width="2.000000"
	d="
M33.000000,139.000000 
	C40.469921,141.862839 47.774265,145.242081 55.999153,145.524689 
	C62.733940,145.756104 69.313087,146.973541 76.080688,144.196640 
	C81.372871,142.025162 83.350632,137.997101 84.925819,133.474167 
	C87.270950,126.740486 85.463249,119.828896 84.941910,113.004440 
	C84.856590,111.887459 84.163170,110.873978 82.498009,110.962654 
	C71.981972,111.522606 61.883484,108.065697 51.495796,107.592262 
	C44.546490,107.275536 37.758053,108.360870 33.524166,115.015373 
	C32.851696,116.072311 32.025269,117.354080 32.075214,118.496712 
	C32.469307,127.512794 30.600079,136.682098 33.984253,145.506042 
	C38.808041,158.083633 44.906803,165.565170 60.499615,166.013367 
	C102.663116,167.225327 144.834549,166.078217 186.999802,166.519501 
	C199.333252,166.648560 211.662872,166.383575 224.006302,166.822845 
	C230.796463,167.064484 237.681107,166.210312 244.525391,165.166473 
	C254.513840,163.643112 259.561829,157.226868 263.518036,149.008682 
	C268.229919,139.220749 267.059784,128.771408 266.874390,118.502266 
	C266.793640,114.026878 258.943970,108.138130 253.999603,108.016037 
	C248.310837,107.875565 242.663528,107.682861 236.981293,108.913666 
	C229.603561,110.511742 222.089584,111.472954 214.663437,110.944168 
	C213.747482,112.833336 213.747482,114.166664 214.682739,116.095650 
	C219.666672,115.716331 224.793304,116.128586 230.009033,115.586937 
	C238.638077,114.690819 247.222565,112.580139 256.000000,114.000000 
"/>
<path fill="none" opacity="1.000000" stroke="#000000" stroke-linecap="round" stroke-linejoin="round" stroke-width="3.000000"
	d="
M275.000000,190.000000 
	C191.333328,190.000000 107.666664,190.000000 24.000000,190.000000 
"/>
<path fill="none" opacity="1.000000" stroke="#000000" stroke-linecap="round" stroke-linejoin="round" stroke-width="3.000000"
	d="
M247.500000,89.500000 
	C245.799255,80.303383 243.143539,71.304283 238.854721,63.075718 
	C234.106583,53.965851 226.285187,49.373856 215.506012,48.871189 
	C176.339600,47.044724 137.165756,48.450756 97.999237,48.080490 
	C91.004593,48.014366 83.835945,48.226536 77.035820,49.668873 
	C64.731323,52.278713 59.153217,61.726109 55.997101,72.999191 
	C55.015747,76.504410 54.662605,80.403023 52.838623,83.401848 
	C50.346539,87.499100 51.314957,91.387703 52.665092,94.937202 
	C54.399837,99.497826 59.098152,101.083572 63.512459,101.935448 
	C83.365143,105.766640 103.416389,105.047623 123.503136,104.664391 
	C135.152557,104.442146 146.808029,103.850403 158.506088,104.360420 
	C174.982040,105.078751 191.511047,105.257065 207.995483,104.827110 
	C216.664047,104.601006 225.398712,104.123589 234.041016,102.182594 
	C241.204865,100.573631 246.110962,97.731316 247.000000,90.000000 
"/>
<path fill="none" opacity="1.000000" stroke="#000000" stroke-linecap="round" stroke-linejoin="round" stroke-width="3.000000"
	d="
M274.500000,201.000000 
	C275.471588,203.616364 274.956604,206.334412 274.972748,209.000168 
	C275.038300,219.833099 275.029968,230.666794 274.987671,241.499954 
	C274.965729,247.121017 272.547852,249.487854 267.000000,249.497986 
	C261.833344,249.507431 256.666473,249.527725 251.500061,249.491440 
	C247.201096,249.461243 245.063629,247.382782 245.020432,242.999802 
	C244.946472,235.496826 245.000000,227.992599 245.000000,220.552673 
	C242.469986,219.407852 240.112244,219.769775 237.939896,219.252274 
	C234.857025,218.517883 233.462906,217.205475 231.883331,214.569931 
	C225.426071,203.795898 222.650345,203.481659 213.023865,206.088135 
	C203.378525,208.699738 193.730408,207.790100 183.998337,207.574982 
	C170.504944,207.276703 156.999603,207.434967 143.500107,207.518188 
	C129.832932,207.602417 116.162003,207.673599 102.502113,208.072311 
	C96.348190,208.251938 90.227646,207.758163 84.553223,205.842361 
	C76.220207,203.028961 70.740860,207.089417 67.190269,213.603699 
	C66.102608,215.599274 65.375748,218.163925 63.444038,218.840134 
	C60.318672,219.934219 56.570164,221.022171 53.564781,220.248398 
	C49.560074,219.217331 45.376602,218.497971 41.520962,216.947861 
	C34.227650,214.015671 29.112528,208.720810 26.000000,201.500000 
"/>
<path fill="none" opacity="1.000000" stroke="#000000" stroke-linecap="round" stroke-linejoin="round" stroke-width="3.000000"
	d="
M74.000000,207.500000 
	C76.733192,208.120438 79.483101,208.423004 82.041420,209.929672 
	C85.840279,212.166885 90.179443,212.046463 94.500069,212.038605 
	C131.499954,211.971298 168.500061,211.971649 205.499924,212.042282 
	C209.346970,212.049622 213.083679,211.858643 216.484024,209.971222 
	C219.162537,208.484497 222.074646,208.020447 225.000000,207.500000 
"/>
<path fill="none" opacity="1.000000" stroke="#000000" stroke-linecap="round" stroke-linejoin="round" stroke-width="3.000000"
	d="
M6.500000,89.000000 
	C12.753504,85.799797 19.248194,87.295395 25.431465,88.784569 
	C27.150772,89.198647 28.914055,92.523026 29.045340,95.498001 
	C29.355564,102.527855 29.193848,109.458725 24.964094,115.474754 
	C21.963608,119.742409 21.348236,124.717392 21.134577,129.506012 
	C20.592285,141.659973 19.830667,153.806610 19.857019,166.000305 
	C19.876991,175.240906 21.395302,184.152878 23.613655,192.971405 
	C24.645927,197.074966 24.093973,200.975296 24.049051,205.000549 
	C23.913279,217.165710 23.970835,229.333435 24.012768,241.499954 
	C24.032610,247.256912 26.318003,249.486877 32.000004,249.498047 
	C36.833317,249.507538 41.666767,249.519272 46.499973,249.494583 
	C51.369591,249.469711 53.917606,246.992950 53.978462,241.999741 
	C54.063770,235.000778 54.000000,228.000000 54.000000,221.000000 
"/>
<path fill="none" opacity="1.000000" stroke="#000000" stroke-linecap="round" stroke-linejoin="round" stroke-width="3.000000"
	d="
M264.500000,96.500000 
	C265.747833,95.230286 266.606964,93.900841 267.151367,92.044388 
	C267.825989,89.743996 269.563263,87.632309 273.221893,90.399529 
	C269.667236,91.833519 270.613037,94.897339 269.855072,97.457085 
	C267.432190,105.639435 272.439789,111.799423 275.180084,118.425522 
	C276.901093,122.586914 277.678253,126.891342 277.805634,131.006012 
	C278.218170,144.334274 279.686157,157.640411 279.003387,171.000168 
	C278.509705,180.660919 277.092438,190.527023 274.037170,199.339539 
	C269.978149,211.047150 260.564789,218.692398 247.001053,219.040787 
	C246.492828,219.053833 246.000000,219.666672 245.500000,220.000015 
"/>
<path fill="none" opacity="1.000000" stroke="#000000" stroke-linecap="round" stroke-linejoin="round" stroke-width="3.000000"
	d="
M126.500000,92.000000 
	C128.139069,89.380058 130.714905,88.987816 133.500015,88.992592 
	C144.166656,89.010902 154.833466,88.975685 165.499802,89.035027 
	C166.653702,89.041435 167.970749,88.418457 168.998688,89.501251 
	C174.011597,94.781784 180.552429,92.833702 186.501160,92.913704 
	C204.331268,93.153511 222.166702,93.014503 239.999954,92.978119 
	C241.833618,92.974380 243.666672,92.666664 245.500000,92.500000 
"/>
<path fill="none" opacity="1.000000" stroke="#000000" stroke-linecap="round" stroke-linejoin="round" stroke-width="3.000000"
	d="
M53.000000,92.000000 
	C54.636856,93.413956 56.617599,92.990143 58.500008,92.991631 
	C76.333328,93.005684 94.166664,93.000000 112.000000,93.000000 
	C130.333328,93.000000 148.666702,93.014122 166.999954,92.978157 
	C168.833603,92.974556 170.666672,92.666664 172.500000,92.500000 
"/>
<path fill="none" opacity="1.000000" stroke="#000000" stroke-linecap="round" stroke-linejoin="round" stroke-width="3.000000"
	d="
M179.500000,92.000000 
	C175.896988,86.673111 170.898743,84.702332 164.497253,84.918991 
	C155.174606,85.234512 145.818375,85.324745 136.504807,84.895782 
	C129.240860,84.561226 123.167816,86.241043 118.500000,92.000000 
"/>
<path fill="none" opacity="1.000000" stroke="#000000" stroke-linecap="round" stroke-linejoin="round" stroke-width="3.000000"
	d="
M124.000000,145.500000 
	C126.106964,146.442780 128.336243,146.008011 130.499527,145.971863 
	C145.332245,145.724030 160.173080,146.564194 175.001816,145.525940 
	C182.633865,144.991562 187.417923,140.890793 189.956238,133.983917 
	C191.208435,130.576599 191.939178,126.981178 193.015305,123.504745 
	C194.375534,119.110519 192.916534,116.989319 188.500000,116.992966 
	C168.833328,117.009186 149.166672,117.000000 129.500000,117.000000 
	C123.000000,117.000000 116.499779,117.032494 110.000084,116.987724 
	C106.148598,116.961197 103.569565,119.897537 105.103310,123.455467 
	C107.113571,128.118790 107.936707,133.245834 110.956825,137.530441 
	C114.090919,141.976730 117.684578,145.409515 123.500000,145.500000 
"/>
<path fill="none" opacity="1.000000" stroke="#000000" stroke-linecap="round" stroke-linejoin="round" stroke-width="3.000000"
	d="
M265.500000,139.500000 
	C258.066956,141.751099 250.968994,144.999039 243.010223,145.629089 
	C237.652466,146.053207 232.275986,146.313080 227.012512,145.855927 
	C219.185760,145.176147 213.718048,138.680161 213.143860,129.491013 
	C212.877548,125.229019 211.740280,120.685150 214.000000,116.500000 
"/>
<path fill="none" opacity="1.000000" stroke="#000000" stroke-linecap="round" stroke-linejoin="round" stroke-width="3.000000"
	d="
M260.000000,111.000000 
	C255.083740,113.363785 256.984467,118.430580 256.316742,122.058296 
	C255.487076,126.565735 253.501785,130.400406 251.889343,134.456009 
	C251.445633,135.572037 250.759659,137.248657 248.494141,137.077469 
	C242.179962,136.600281 235.810043,137.551727 229.500000,136.500000 
"/>
<path fill="none" opacity="1.000000" stroke="#000000" stroke-linecap="round" stroke-linejoin="round" stroke-width="3.000000"
	d="
M39.000000,111.000000 
	C41.439758,112.716293 42.282875,114.940613 42.078686,118.005241 
	C41.721794,123.361877 44.064667,128.192749 46.075504,132.968201 
	C47.354099,136.004684 49.783401,137.493454 53.509789,137.090500 
	C58.803040,136.518127 64.192726,137.500458 69.500000,136.500000 
"/>
<path fill="none" opacity="1.000000" stroke="#000000" stroke-linecap="round" stroke-linejoin="round" stroke-width="3.000000"
	d="
M257.000000,204.500000 
	C252.528931,201.565506 247.889526,200.702042 242.465363,201.834061 
	C238.544205,202.652420 238.605820,205.033356 239.111267,207.476990 
	C239.703491,210.339996 241.611465,211.979813 245.010910,211.039429 
	C249.435013,209.815582 253.715256,208.430511 257.000000,205.000000 
"/>
<path fill="none" opacity="1.000000" stroke="#000000" stroke-linecap="round" stroke-linejoin="round" stroke-width="3.000000"
	d="
M124.000000,118.000000 
	C123.693535,126.997414 124.621269,136.017685 123.500000,145.000000 
"/>
<path fill="none" opacity="1.000000" stroke="#000000" stroke-linecap="round" stroke-linejoin="round" stroke-width="3.000000"
	d="
M174.000000,118.000000 
	C174.306473,126.997414 173.378723,136.017685 174.500000,145.000000 
"/>
<path fill="none" opacity="1.000000" stroke="#000000" stroke-linecap="round" stroke-linejoin="round" stroke-width="3.000000"
	d="
M186.000000,118.000000 
	C186.143341,125.242020 185.971710,132.452057 184.036621,139.510040 
	C183.920776,139.932587 184.333344,140.500000 184.500000,141.000000 
"/>
<path fill="none" opacity="1.000000" stroke="#000000" stroke-linecap="round" stroke-linejoin="round" stroke-width="3.000000"
	d="
M112.000000,118.000000 
	C112.666664,125.500000 113.333336,133.000000 114.000000,140.500000 
"/>
<path fill="none" opacity="1.000000" stroke="#000000" stroke-linecap="round" stroke-linejoin="round" stroke-width="3.000000"
	d="
M43.000000,114.000000 
	C49.263008,113.311768 55.294163,114.026062 61.553898,115.216621 
	C68.822662,116.599083 76.500000,115.833328 84.000000,115.999992 
"/>
<path fill="none" opacity="1.000000" stroke="#000000" stroke-linecap="round" stroke-linejoin="round" stroke-width="3.000000"
	d="
M5.500000,89.500000 
	C7.185142,90.942741 7.184968,90.981934 9.500034,90.992172 
	C14.999927,91.016502 20.500000,91.000000 26.000000,91.000000 
"/>
<path fill="none" opacity="1.000000" stroke="#000000" stroke-linecap="round" stroke-linejoin="round" stroke-width="3.000000"
	d="
M293.500000,89.500000 
	C292.856598,91.839806 290.906921,90.929344 289.499146,90.956581 
	C284.001221,91.062935 278.500000,91.000000 273.000000,91.000000 
"/>
<path fill="none" opacity="1.000000" stroke="#000000" stroke-linecap="round" stroke-linejoin="round" stroke-width="3.000000"
	d="
M292.500000,89.000000 
	C285.666656,86.107162 278.833344,87.406570 272.000000,89.000000 
"/>
<path fill="none" opacity="1.000000" stroke="#000000" stroke-linecap="round" stroke-linejoin="round" stroke-width="3.000000"
	d="
M237.000000,116.000000 
	C236.211166,123.947647 233.171570,130.941574 227.986755,136.988647 
	C226.068771,139.225616 224.000015,141.333344 222.000015,143.500015 
"/>
<path fill="none" opacity="1.000000" stroke="#000000" stroke-linecap="round" stroke-linejoin="round" stroke-width="2.000000"
	d="
M61.500000,116.000000 
	C62.881100,126.853981 68.506683,135.428513 76.000000,143.000000 
"/>
<path fill="none" opacity="1.000000" stroke="#000000" stroke-linecap="round" stroke-linejoin="round" stroke-width="3.000000"
	d="
M294.500000,91.000000 
	C296.629211,94.166664 296.129883,97.363358 294.487457,100.493423 
	C291.540619,106.109528 287.496857,109.852623 280.493011,109.061996 
	C277.622681,108.737984 274.572510,108.521919 272.000000,110.500000 
"/>
<path fill="none" opacity="1.000000" stroke="#000000" stroke-linecap="round" stroke-linejoin="round" stroke-width="3.000000"
	d="
M8.500000,105.500000 
	C9.990034,108.830879 12.950616,108.830482 15.995837,109.056175 
	C19.513420,109.316872 23.325396,107.722229 26.500000,110.500000 
"/>
<path fill="none" opacity="1.000000" stroke="#000000" stroke-linecap="round" stroke-linejoin="round" stroke-width="5.000000"
	d="
M4.500000,91.000000 
	C0.899456,96.859444 4.110768,104.140625 10.493535,105.045593 
	C16.649523,105.918396 22.815271,106.000824 29.000000,106.000000 
"/>
<path fill="none" opacity="1.000000" stroke="#000000" stroke-linecap="round" stroke-linejoin="round" stroke-width="2.000000"
	d="
M27.500000,89.000000 
	C29.258968,89.004112 30.723621,88.903458 31.136276,91.478157 
	C31.447794,93.421837 33.000000,95.166664 34.000000,97.000000 
"/>
<path fill="none" opacity="1.000000" stroke="#000000" stroke-linecap="round" stroke-linejoin="round" stroke-width="3.000000"
	d="
M52.000000,201.000000 
	C48.804596,202.560745 44.588505,201.205246 41.547657,205.076218 
	C45.797031,208.126678 49.865986,211.011429 55.499329,211.067535 
	C58.903740,211.101425 59.471714,208.751480 59.925789,206.485138 
	C60.421341,204.011734 59.652435,202.055511 56.501591,201.951706 
	C55.158733,201.907455 53.833332,201.333344 52.500000,201.000000 
"/>
</svg>