<svg version="1.1" id="Layer_1" xmlns="http://www.w3.org/2000/svg" xmlns:xlink="http://www.w3.org/1999/xlink" x="0px" y="0px"
	 width="100%" viewBox="0 0 813 318" enable-background="new 0 0 813 318" xml:space="preserve">
<path fill="none" opacity="1.000000" stroke="#000000" stroke-linecap="round" stroke-linejoin="round" stroke-width="3.000000"
	d="
M339.000000,66.000000 
	C336.031891,72.690132 335.180389,79.904335 334.045898,87.007332 
	C329.861420,113.205673 330.785004,139.639313 331.127625,165.998337 
	C331.362000,184.027756 333.235901,201.984604 337.999115,219.500244 
	C338.707672,222.105728 339.669067,223.212280 343.024506,222.644913 
	C356.747803,220.324448 370.615021,219.118744 384.485474,217.842270 
	C402.139862,216.217545 419.852356,216.430161 437.509186,215.124100 
	C446.957489,214.425217 456.500000,215.000000 466.000000,215.000000 
	C484.833344,215.000000 503.667572,214.889252 522.499634,215.044434 
	C532.668396,215.128204 542.833313,215.666656 553.000000,216.000000 
"/>
<path fill="none" opacity="1.000000" stroke="#000000" stroke-linecap="round" stroke-linejoin="round" stroke-width="3.000000"
	d="
M554.000000,68.500000 
	C559.408630,59.393127 568.717773,57.124729 578.008118,55.035992 
	C593.365784,51.583107 608.946411,49.360241 624.497498,46.983479 
	C634.330383,45.480656 644.046082,43.281013 653.996582,42.458351 
	C665.095520,41.540737 674.964233,43.694469 683.582886,51.407387 
	C690.188904,57.319199 692.470703,64.869179 694.001038,72.999809 
	C700.075500,105.274101 699.536865,137.928818 698.764221,170.494400 
	C698.379150,186.725433 696.846924,203.063263 692.984985,218.996353 
	C692.489319,221.041336 691.789124,223.036728 691.183105,225.056946 
	C695.735046,226.472672 699.372559,224.933823 700.972168,220.489975 
	C703.467407,213.557816 704.246033,206.318176 705.130554,199.015808 
	C707.467346,179.724869 707.798401,160.322006 707.728882,141.000977 
	C707.661194,122.179901 707.254089,103.260689 704.942749,84.507057 
	C704.320740,79.460480 703.208557,74.446617 701.946045,69.513824 
	C700.446350,63.654728 698.046692,62.060925 692.500000,62.500000 
"/>
<path fill="none" opacity="1.000000" stroke="#000000" stroke-linecap="round" stroke-linejoin="round" stroke-width="3.000000"
	d="
M85.000000,79.500000 
	C92.646385,80.599663 100.333748,79.815361 108.000412,79.980759 
	C137.569946,80.618683 165.551056,73.631668 192.482330,61.959236 
	C203.106583,57.354515 213.156204,51.648468 223.124817,45.709511 
	C228.315521,42.617073 234.688553,41.364162 240.998367,40.973713 
	C263.606781,39.574715 284.902557,45.299629 306.018066,52.446667 
	C322.114380,57.894852 338.617706,61.919563 355.510010,63.915253 
	C365.121277,65.050751 374.856567,65.096176 384.496124,66.039650 
	C435.591187,71.040596 486.827820,68.287178 538.000366,68.971397 
	C541.830811,69.022614 545.666992,68.672928 549.499878,68.497139 
	C551.198975,68.419220 552.843994,68.468071 553.634949,70.002235 
	C554.199097,77.166664 553.406372,84.392067 554.154114,91.483749 
	C554.927429,98.817459 555.232483,106.178139 556.028503,113.496902 
	C557.440308,126.477684 556.961609,139.494171 556.981201,152.500031 
	C557.003601,167.396698 555.395935,182.188553 554.106628,197.009277 
	C553.487854,204.122055 554.000000,211.333221 554.000000,219.000000 
	C551.844055,219.000000 550.171997,219.010925 548.500000,218.998352 
	C526.666687,218.834167 504.809113,219.246521 483.006897,218.335297 
	C461.627747,217.441803 440.343231,219.267517 418.999390,219.202805 
	C403.835907,219.156830 388.629089,220.616806 373.509705,222.099121 
	C355.498322,223.864944 337.409058,225.485931 320.001251,231.003922 
	C311.660675,233.647766 303.411163,236.616913 294.980896,238.930435 
	C283.658051,242.037766 272.366364,245.072556 260.526184,246.260910 
	C251.726517,247.144089 243.076645,247.203644 234.539719,245.764389 
	C230.546570,245.091187 226.144684,244.489212 222.490372,242.014206 
	C199.627121,226.529312 174.235474,216.722229 147.443756,211.276688 
	C128.642700,207.455292 109.335014,205.927689 89.998268,207.478394 
	C88.428902,207.604248 86.882721,207.638901 85.500000,208.500000 
"/>
<path fill="none" opacity="1.000000" stroke="#000000" stroke-linecap="round" stroke-linejoin="round" stroke-width="3.000000"
	d="
M101.500000,250.000000 
	C103.245102,249.205887 105.074944,248.486267 103.514618,245.990860 
	C102.924561,245.047165 102.612328,243.922363 101.982956,243.011780 
	C93.961807,231.406998 86.171547,219.654114 79.536873,207.365417 
	C75.931541,208.149551 77.765907,210.559555 78.122482,211.451004 
	C84.197960,226.639572 91.464905,241.218750 102.544334,253.459869 
	C111.562622,263.423706 123.177109,267.835114 136.488266,269.121368 
	C151.669189,270.588348 166.874237,270.460114 181.990906,269.793610 
	C204.824173,268.786835 227.712311,269.056427 250.501114,267.012482 
	C254.655197,266.639893 258.870728,267.601837 263.000000,266.500000 
"/>
<path fill="none" opacity="1.000000" stroke="#000000" stroke-linecap="round" stroke-linejoin="round" stroke-width="3.000000"
	d="
M686.500000,29.000000 
	C687.833313,28.111382 689.064331,28.359802 690.517151,28.958317 
	C698.029602,32.053082 702.945007,37.021835 704.058044,45.492374 
	C705.485657,56.357117 707.635437,67.131310 708.908691,78.010674 
	C710.014465,87.459290 710.740112,96.993355 710.895508,106.501709 
	C711.083618,118.011482 711.964478,129.513916 711.864136,140.998810 
	C711.701111,159.669876 711.256165,178.378723 709.823242,196.986389 
	C708.558044,213.416702 707.174072,229.934738 702.981750,245.995239 
	C700.903442,253.957016 694.023682,258.315308 686.005920,258.643829 
	C674.830444,259.101715 663.580994,258.771576 652.483154,260.912628 
	C648.756409,261.631592 644.833313,261.333313 641.000000,261.500000 
"/>
<path fill="none" opacity="1.000000" stroke="#000000" stroke-linecap="round" stroke-linejoin="round" stroke-width="3.000000"
	d="
M224.000000,81.500000 
	C226.070389,76.540504 225.830292,71.133904 226.831100,65.967285 
	C227.653885,61.719753 228.948837,57.626377 230.138748,53.540405 
	C231.618927,48.457642 236.093628,45.809361 241.013733,45.094463 
	C257.432373,42.708817 273.395233,45.398239 288.991119,50.527016 
	C304.800354,55.725956 320.509979,61.196014 336.992065,64.045891 
	C346.621796,65.710953 356.269714,67.034393 365.990936,68.083832 
	C391.264648,70.812210 416.610809,71.436142 441.992981,72.225517 
	C462.337830,72.858231 482.674805,73.224014 502.997131,72.845749 
	C519.663208,72.535530 536.324829,71.908569 553.000000,72.000000 
"/>
<path fill="none" opacity="1.000000" stroke="#000000" stroke-linecap="round" stroke-linejoin="round" stroke-width="3.000000"
	d="
M262.500000,21.000000 
	C258.833344,20.666666 255.153793,19.945747 251.502228,20.067055 
	C235.642303,20.593927 219.803436,19.465803 204.012360,18.733553 
	C183.489578,17.781887 162.996323,18.082304 142.500687,18.167114 
	C132.833649,18.207121 123.267426,19.907890 114.419014,24.855158 
	C108.790428,28.002180 104.811508,32.585644 99.705460,37.174530 
	C104.881882,37.801842 104.794601,40.586445 102.948425,43.466946 
	C98.609474,50.236832 93.952232,56.801773 89.518173,63.512009 
	C86.918526,67.446159 83.332695,71.231354 82.332680,75.576561 
	C81.358681,79.808716 76.700958,79.379738 75.741302,83.438843 
	C74.753128,87.618584 73.226707,91.801315 72.011597,96.003349 
	C66.192734,116.125832 64.852226,136.783691 66.175705,157.488770 
	C67.258369,174.426376 70.521538,191.124847 77.000000,207.000000 
"/>
<path fill="none" opacity="1.000000" stroke="#000000" stroke-linecap="round" stroke-linejoin="round" stroke-width="3.000000"
	d="
M634.500000,46.000000 
	C641.472229,56.170395 645.255005,67.662361 647.908813,79.520409 
	C649.112793,84.900154 649.772156,90.488472 649.916992,96.002182 
	C650.337158,111.995827 651.481445,127.952644 650.752930,144.011475 
	C650.355835,152.764420 651.343506,161.697876 650.881165,170.493759 
	C649.914978,188.873047 649.677673,207.387054 643.085327,225.031876 
	C640.833984,231.057495 637.301270,236.317307 634.500000,242.000000 
"/>
<path fill="none" opacity="1.000000" stroke="#000000" stroke-linecap="round" stroke-linejoin="round" stroke-width="2.000000"
	d="
M215.000000,73.500000 
	C210.681824,83.426201 208.778473,94.024033 206.539352,104.508408 
	C203.688385,117.857574 200.799683,131.291794 201.124039,144.997070 
	C201.427383,157.815002 203.784988,170.448334 206.449661,183.010681 
	C209.371521,196.785370 212.690308,210.425552 218.022339,223.490875 
	C220.539658,229.659149 223.410477,235.672485 227.519806,240.984680 
	C228.238403,241.913620 229.400650,242.549683 229.000000,244.000000 
"/>
<path fill="none" opacity="1.000000" stroke="#000000" stroke-linecap="round" stroke-linejoin="round" stroke-width="3.000000"
	d="
M225.000000,198.500000 
	C222.145462,202.833328 224.840271,207.265564 225.237396,211.477615 
	C225.888901,218.387405 227.204300,225.342865 229.503159,231.998917 
	C232.199158,239.804855 236.687805,242.429291 244.991608,243.103378 
	C265.103058,244.735962 283.950562,239.404678 302.441345,232.834885 
	C314.268311,228.632736 326.504364,226.349075 338.500000,223.000000 
"/>
<path fill="none" opacity="1.000000" stroke="#000000" stroke-linecap="round" stroke-linejoin="round" stroke-width="3.000000"
	d="
M162.500000,37.500000 
	C162.166672,37.333332 161.708969,37.255238 161.518036,36.987148 
	C155.431503,28.441408 146.753616,30.027767 137.995010,30.373470 
	C120.257759,31.073565 109.799179,42.627880 100.087112,55.068012 
	C90.086571,67.877670 81.735542,81.690285 76.924980,97.477142 
	C72.985283,110.406097 70.427399,123.428261 69.884995,136.995407 
	C69.072075,157.328842 71.680046,176.982361 78.988632,196.004364 
	C87.264381,217.543564 100.273041,235.819733 117.608337,250.875259 
	C122.580185,255.193237 129.420380,256.303284 136.002121,256.979431 
	C138.822800,257.269196 141.705688,257.094421 144.491943,257.549316 
	C150.451813,258.522369 155.698303,257.464935 159.407547,252.431854 
	C160.331223,251.178497 161.506607,251.176575 162.500000,250.500000 
"/>
<path fill="none" opacity="1.000000" stroke="#000000" stroke-linecap="round" stroke-linejoin="round" stroke-width="3.000000"
	d="
M251.500000,32.500000 
	C260.962372,36.534565 270.433899,39.816113 280.967621,40.834915 
	C290.288879,41.736462 299.321228,45.545525 308.502838,47.989338 
	C322.307800,51.663723 336.299927,54.213768 350.477753,56.161983 
	C366.448181,58.356525 382.472961,58.715412 398.502136,59.453609 
	C400.142517,59.529156 401.922546,60.058701 403.500000,59.000000 
"/>
<path fill="none" opacity="1.000000" stroke="#000000" stroke-linecap="round" stroke-linejoin="round" stroke-width="3.000000"
	d="
M273.500000,258.500000 
	C281.000000,257.121674 288.508972,258.272980 295.992920,258.642975 
	C297.618744,258.723328 299.343323,258.962708 301.000061,258.965393 
	C330.499969,259.013062 360.000153,259.057129 389.499939,258.978058 
	C406.500275,258.932465 423.513000,259.015656 440.495605,258.382507 
	C452.672607,257.928528 464.903442,258.973969 476.982147,257.814148 
	C491.321564,256.437256 505.674591,257.247009 520.019348,256.290009 
	C532.117615,255.482895 544.316895,254.763474 556.500549,254.965530 
	C557.483154,254.981842 558.646179,255.543808 559.500000,254.500000 
"/>
<path fill="none" opacity="1.000000" stroke="#000000" stroke-linecap="round" stroke-linejoin="round" stroke-width="3.000000"
	d="
M554.000000,33.500000 
	C545.603943,31.232693 536.953735,32.782688 528.515625,31.857613 
	C517.010925,30.596359 505.463196,31.729996 494.014526,30.376976 
	C493.050812,30.263083 491.979858,30.005924 491.001038,30.034891 
	C464.993439,30.804588 439.017731,29.084850 412.998932,29.169132 
	C371.173309,29.304619 329.332947,29.271477 287.499847,29.025185 
	C283.667633,29.002621 279.721252,28.842062 276.041473,29.681753 
	C273.785156,30.196621 274.245911,28.645695 273.404663,28.049433 
	C276.101868,24.561739 279.318451,23.949770 283.524750,24.889128 
	C288.988831,26.109371 291.296295,24.817928 293.971802,19.984388 
	C297.256714,14.049840 300.333344,8.000005 303.500000,2.000005 
"/>
<path fill="none" opacity="1.000000" stroke="#000000" stroke-linecap="round" stroke-linejoin="round" stroke-width="3.000000"
	d="
M220.000000,164.000000 
	C217.662903,158.395889 217.724411,152.358612 217.082428,146.490982 
	C216.101486,137.525360 215.680084,128.498962 214.986252,119.501060 
	C214.875519,118.065155 215.830627,115.984657 213.000000,115.984657 
	C210.169373,115.984657 210.940094,118.091774 211.045349,119.496605 
	C211.570709,126.508041 212.144592,133.519302 212.798157,140.518845 
	C213.436829,147.358795 213.838318,154.216522 215.006287,160.998917 
	C216.041321,167.009308 217.615692,172.871704 220.000000,178.500000 
"/>
<path fill="none" opacity="1.000000" stroke="#000000" stroke-linecap="round" stroke-linejoin="round" stroke-width="3.000000"
	d="
M564.500000,20.000000 
	C562.037109,38.870464 549.483398,47.858162 532.478027,51.907715 
	C520.358459,54.793789 508.010468,56.385944 495.505371,57.094707 
	C471.182068,58.473297 446.854584,59.075829 422.499939,59.041149 
	C419.507629,59.036888 416.508209,58.374378 413.446686,59.329010 
	C412.694214,59.563629 410.453278,59.630054 409.884644,57.025181 
	C407.240326,44.911251 404.378540,32.849777 403.000000,20.500000 
"/>
<path fill="none" opacity="1.000000" stroke="#000000" stroke-linecap="round" stroke-linejoin="round" stroke-width="3.000000"
	d="
M563.500000,267.500000 
	C555.465515,268.990021 547.479248,267.595093 539.503296,266.958374 
	C522.848389,265.628815 506.114380,265.161957 489.513062,266.207245 
	C462.509155,267.907471 435.515625,267.966919 408.500000,267.999603 
	C406.000000,268.002625 403.499756,267.979797 401.000092,268.009094 
	C399.866058,268.022369 398.608582,268.235962 398.021149,266.990021 
	C396.547607,263.864716 393.390015,264.275848 390.992065,264.132507 
	C384.515228,263.745331 377.999969,264.013397 371.500031,263.992584 
	C369.297211,263.985535 367.498901,264.498322 367.000000,267.000000 
"/>
<path fill="none" opacity="1.000000" stroke="#000000" stroke-linecap="round" stroke-linejoin="round" stroke-width="3.000000"
	d="
M537.500000,21.500000 
	C533.707214,20.400703 529.760681,20.677849 526.011353,21.100454 
	C506.107025,23.343929 486.321655,21.063707 466.498993,20.019274 
	C463.839722,19.879160 461.166626,19.990351 458.500000,20.001646 
	C445.989594,20.054640 433.476349,20.044313 421.002747,18.968159 
	C414.320618,18.391665 407.672607,20.244976 400.989685,19.058119 
	C400.400787,18.953539 399.461304,19.499672 399.032776,20.026655 
	C395.849274,23.941504 391.268738,23.670078 386.995941,23.934662 
	C382.347137,24.222530 377.666595,23.985085 373.000031,24.005978 
	C370.477448,24.017271 368.184540,23.630932 367.000000,21.000000 
"/>
<path fill="none" opacity="1.000000" stroke="#000000" stroke-linecap="round" stroke-linejoin="round" stroke-width="3.000000"
	d="
M228.500000,44.500000 
	C227.179565,48.095863 224.480316,50.820831 222.482635,53.989052 
	C219.837021,58.184845 219.079300,62.571529 219.936035,67.511093 
	C221.430038,76.124779 224.755829,84.689011 223.304504,93.467682 
	C222.182495,100.254471 223.534271,106.768692 224.800201,112.938400 
	C228.041885,128.737152 225.862976,144.738159 228.000000,160.500000 
"/>
<path fill="none" opacity="1.000000" stroke="#000000" stroke-linecap="round" stroke-linejoin="round" stroke-width="3.000000"
	d="
M554.000000,219.500000 
	C561.133667,229.825806 572.497192,231.832413 583.519592,233.895325 
	C601.613953,237.281815 619.881531,239.741287 637.978516,243.115356 
	C646.312927,244.669250 654.602844,245.130646 663.000000,245.000229 
	C670.957336,244.876648 677.936890,242.084976 683.411560,236.414612 
	C686.267639,233.456451 689.680725,230.718857 691.000000,226.500000 
"/>
<path fill="none" opacity="1.000000" stroke="#000000" stroke-linecap="round" stroke-linejoin="round" stroke-width="3.000000"
	d="
M685.500000,29.500002 
	C679.666687,29.000002 673.840576,28.220612 667.998230,28.068390 
	C660.109375,27.862846 652.285095,26.347816 644.497253,26.269041 
	C635.866943,26.181740 628.378662,21.920895 620.002686,21.451584 
	C616.153442,21.235909 612.343079,20.171663 608.498291,20.057388 
	C592.669067,19.586916 576.828308,18.973206 561.002686,19.193064 
	C555.375183,19.271242 549.672241,19.763237 544.005920,20.099714 
	C541.574280,20.244104 538.490906,20.011829 537.407227,23.470932 
	C537.237610,24.012194 535.857544,24.363487 534.996277,24.469500 
	C526.518616,25.512987 518.061890,27.237820 509.485596,25.056578 
	C508.166260,24.721022 507.385315,24.226677 507.000000,23.000000 
"/>
<path fill="none" opacity="1.000000" stroke="#000000" stroke-linecap="round" stroke-linejoin="round" stroke-width="3.000000"
	d="
M687.500000,243.500000 
	C681.603333,252.169403 672.371338,253.620193 663.008667,255.056519 
	C656.294861,256.086487 649.103943,255.626923 643.066711,259.115448 
	C637.056091,262.588654 630.587708,264.233551 623.984009,265.410217 
	C617.055481,266.644775 610.018921,267.591583 602.995728,267.904205 
	C591.344727,268.422791 579.666931,268.356934 567.999634,268.462952 
	C566.849731,268.473419 565.537048,269.074158 564.500000,268.000000 
"/>
<path fill="none" opacity="1.000000" stroke="#000000" stroke-linecap="round" stroke-linejoin="round" stroke-width="3.000000"
	d="
M160.000000,36.500000 
	C154.853760,37.299976 149.697678,36.380367 144.484589,36.815357 
	C133.464905,37.734859 124.596733,41.456360 118.976440,51.486797 
	C112.864532,62.394596 103.197624,67.955566 91.000000,69.500000 
"/>
<path fill="none" opacity="1.000000" stroke="#000000" stroke-linecap="round" stroke-linejoin="round" stroke-width="3.000000"
	d="
M398.000000,267.500000 
	C391.524719,268.630981 384.998352,267.902130 378.499634,267.958984 
	C363.667419,268.088806 348.825287,268.300964 334.002563,267.904663 
	C322.169434,267.588318 310.348145,266.765594 298.500732,267.032227 
	C297.174713,267.062073 295.721924,266.441986 294.500000,267.500000 
"/>
<path fill="none" opacity="1.000000" stroke="#000000" stroke-linecap="round" stroke-linejoin="round" stroke-width="3.000000"
	d="
M397.500000,20.000000 
	C388.833344,19.017443 380.172485,19.789463 371.498779,19.918245 
	C353.336121,20.187910 335.166107,19.920605 317.000305,20.045918 
	C311.164948,20.086176 305.335510,20.716440 299.498718,20.970678 
	C297.668304,21.050406 295.771820,21.343359 294.000000,20.500000 
"/>
<path fill="none" opacity="1.000000" stroke="#000000" stroke-linecap="round" stroke-linejoin="round" stroke-width="3.000000"
	d="
M159.500000,251.500000 
	C155.366684,250.499680 151.166550,251.167496 146.999680,251.008347 
	C134.755783,250.540710 124.848190,246.835754 118.276985,235.125137 
	C112.699890,225.186111 103.464577,219.148865 91.500000,218.500000 
"/>
<path fill="none" opacity="1.000000" stroke="#000000" stroke-linecap="round" stroke-linejoin="round" stroke-width="3.000000"
	d="
M223.000000,115.500000 
	C220.762985,119.282875 221.879639,123.560768 221.688507,127.509125 
	C221.149200,138.649689 221.109879,149.850876 221.611176,160.994995 
	C222.099533,171.851349 222.822159,182.787262 224.721039,193.460678 
	C226.160873,201.553925 229.070419,209.430283 231.132828,217.465912 
	C232.577377,223.094254 234.281021,228.761444 237.000000,234.000000 
"/>
<path fill="none" opacity="1.000000" stroke="#000000" stroke-linecap="round" stroke-linejoin="round" stroke-width="3.000000"
	d="
M640.500000,27.000000 
	C645.554932,31.391142 652.032715,30.830704 658.004761,31.975277 
	C663.816223,33.089088 669.782898,33.574272 675.465820,35.125206 
	C680.671997,36.546009 684.533264,40.412403 688.000000,44.500000 
"/>
<path fill="none" opacity="1.000000" stroke="#000000" stroke-linecap="round" stroke-linejoin="round" stroke-width="3.000000"
	d="
M259.500000,257.000000 
	C262.920166,266.567352 268.184021,274.893066 275.752655,281.630981 
	C277.612518,280.639587 276.205811,278.269562 278.290558,277.375366 
	C285.518555,281.610962 292.443115,287.503967 302.000000,285.500000 
"/>
<path fill="none" opacity="1.000000" stroke="#000000" stroke-linecap="round" stroke-linejoin="round" stroke-width="3.000000"
	d="
M99.500000,38.000000 
	C89.444344,50.390175 82.049690,64.191002 77.500000,79.500000 
"/>
<path fill="none" opacity="1.000000" stroke="#000000" stroke-linecap="round" stroke-linejoin="round" stroke-width="3.000000"
	d="
M526.000000,33.000000 
	C526.835449,38.457802 527.744019,43.897335 529.800903,49.303040 
	C539.091675,45.973587 548.129883,42.724510 553.909119,34.436623 
	C555.509338,32.141792 557.338318,33.516617 559.000000,33.000000 
"/>
<path fill="none" opacity="1.000000" stroke="#000000" stroke-linecap="round" stroke-linejoin="round" stroke-width="3.000000"
	d="
M554.000000,254.000000 
	C549.037903,245.522156 540.346863,242.480194 531.971130,239.070969 
	C530.332458,238.403976 529.388489,239.229309 528.845215,241.462341 
	C527.752747,245.952744 526.405640,250.367920 526.000000,255.000000 
"/>
<path fill="none" opacity="1.000000" stroke="#000000" stroke-linecap="round" stroke-linejoin="round" stroke-width="2.000000"
	d="
M395.000000,30.000000 
	C397.596649,38.744041 400.134827,47.498791 403.426971,56.028191 
	C404.674072,59.259205 406.300598,60.398819 409.500000,59.000000 
"/>
<path fill="none" opacity="1.000000" stroke="#000000" stroke-linecap="round" stroke-linejoin="round" stroke-width="3.000000"
	d="
M538.000000,266.000000 
	C536.582397,261.106201 532.035767,262.611359 528.973022,262.202118 
	C523.569458,261.480133 517.999939,262.017120 512.500061,261.992096 
	C510.089417,261.981140 508.085236,262.628510 507.000000,265.000000 
"/>
<path fill="none" opacity="1.000000" stroke="#000000" stroke-linecap="round" stroke-linejoin="round" stroke-width="3.000000"
	d="
M219.000000,63.500000 
	C216.192596,66.961029 215.454926,70.449387 216.832687,75.050102 
	C218.820358,81.687485 219.666656,88.666672 221.000000,95.500000 
"/>
<path fill="none" opacity="1.000000" stroke="#000000" stroke-linecap="round" stroke-linejoin="round" stroke-width="3.000000"
	d="
M277.000000,282.500000 
	C282.972687,287.042206 289.358429,290.464539 296.985840,291.595490 
	C303.062653,292.496521 304.014648,291.712555 302.551514,285.986847 
	C300.651550,278.551971 296.292084,272.446320 292.558838,265.966095 
	C291.083740,263.405579 289.189972,262.871552 286.498535,262.949921 
	C281.099304,263.107147 275.977295,263.572266 271.702454,258.238464 
	C269.685883,255.722366 264.653687,255.502640 260.471313,256.360107 
	C257.966003,256.873749 255.034714,258.277924 252.500000,256.000000 
"/>
<path fill="none" opacity="1.000000" stroke="#000000" stroke-linecap="round" stroke-linejoin="round" stroke-width="3.000000"
	d="
M410.500000,229.000000 
	C407.275726,241.523712 404.549316,254.145691 403.000000,267.000000 
"/>
<path fill="none" opacity="1.000000" stroke="#000000" stroke-linecap="round" stroke-linejoin="round" stroke-width="3.000000"
	d="
M404.000000,229.000000 
	C402.000000,235.500000 400.272888,242.102585 397.884216,248.456482 
	C396.700500,251.605209 396.094513,254.863190 395.000000,258.000000 
"/>
<path fill="none" opacity="1.000000" stroke="#000000" stroke-linecap="round" stroke-linejoin="round" stroke-width="3.000000"
	d="
M417.000000,229.000000 
	C415.068024,238.584091 413.539520,248.223846 413.000000,258.000000 
"/>
<path fill="none" opacity="1.000000" stroke="#000000" stroke-linecap="round" stroke-linejoin="round" stroke-width="3.000000"
	d="
M413.000000,30.000000 
	C413.637085,39.432796 414.964569,48.766964 417.000000,58.000000 
"/>
<path fill="none" opacity="1.000000" stroke="#000000" stroke-linecap="round" stroke-linejoin="round" stroke-width="3.000000"
	d="
M301.500000,2.000000 
	C292.581116,1.066539 285.427216,5.207404 278.805206,10.255492 
	C276.612122,9.277268 276.470459,7.681442 276.507904,5.746382 
	C278.404053,3.832239 280.695557,2.267143 283.500000,1.500000 
"/>
<path fill="none" opacity="1.000000" stroke="#000000" stroke-linecap="round" stroke-linejoin="round" stroke-width="2.000000"
	d="
M276.000000,6.500000 
	C269.595337,10.150389 266.844849,16.786808 263.055054,22.536293 
	C261.552948,24.815170 260.666656,27.499998 259.500000,29.999998 
"/>
<path fill="none" opacity="1.000000" stroke="#000000" stroke-linecap="round" stroke-linejoin="round" stroke-width="3.000000"
	d="
M230.000000,83.500000 
	C229.315063,91.042007 228.531784,98.570908 227.000000,106.000000 
"/>
<path fill="none" opacity="1.000000" stroke="#000000" stroke-linecap="round" stroke-linejoin="round" stroke-width="3.000000"
	d="
M521.000000,32.000004 
	C522.666626,38.833336 524.333313,45.666668 526.000000,52.500004 
"/>
<path fill="none" opacity="1.000000" stroke="#000000" stroke-linecap="round" stroke-linejoin="round" stroke-width="2.000000"
	d="
M526.000000,235.000000 
	C524.333374,241.666672 522.666687,248.333344 521.000000,255.000000 
"/>
<path fill="none" opacity="1.000000" stroke="#000000" stroke-linecap="round" stroke-linejoin="round" stroke-width="3.000000"
	d="
M688.500000,232.000000 
	C690.076965,234.300797 687.595520,236.236389 687.946777,238.508224 
	C688.483215,241.976807 688.573364,245.512100 689.025452,248.996689 
	C689.505371,252.695801 688.236633,255.610550 685.500000,258.000000 
"/>
<path fill="none" opacity="1.000000" stroke="#000000" stroke-linecap="round" stroke-linejoin="round" stroke-width="3.000000"
	d="
M273.000000,28.500000 
	C270.901886,30.539007 268.442932,31.556170 265.501587,30.991793 
	C259.791565,29.896168 254.175964,31.649225 248.500000,31.500000 
"/>
<path fill="none" opacity="1.000000" stroke="#000000" stroke-linecap="round" stroke-linejoin="round" stroke-width="3.000000"
	d="
M686.000000,30.500000 
	C689.977173,33.556675 689.476685,38.041214 688.832031,41.972458 
	C688.155945,46.095589 687.626770,49.986473 688.951965,54.015797 
	C689.133545,54.567924 688.666687,55.333336 688.500000,56.000004 
"/>
<path fill="none" opacity="1.000000" stroke="#000000" stroke-linecap="round" stroke-linejoin="round" stroke-width="3.000000"
	d="
M282.500000,247.000000 
	C279.919403,250.272888 274.709930,251.574097 275.000000,257.000000 
"/>
<path fill="none" opacity="1.000000" stroke="#000000" stroke-linecap="round" stroke-linejoin="round" stroke-width="3.000000"
	d="
M275.000000,30.500000 
	C274.470886,34.217464 276.920837,36.086304 279.444305,38.070820 
	C280.198578,38.664013 281.961029,38.764515 281.500000,40.500000 
"/>
</svg>