<svg version="1.1" id="Layer_1" xmlns="http://www.w3.org/2000/svg" xmlns:xlink="http://www.w3.org/1999/xlink" x="0px" y="0px"
	 width="100%" viewBox="0 0 677 254" enable-background="new 0 0 677 254" xml:space="preserve">
<path fill="none" opacity="1.000000" stroke="#000000" stroke-linecap="round" stroke-linejoin="round" stroke-width="4.000000"
	d="
M1.500000,254.249985 
	C3.333334,254.333328 5.166664,254.489578 7.000001,254.489655 
	C230.500000,254.500610 454.000000,254.500000 677.500000,254.500000 
"/>
<path fill="none" opacity="1.000000" stroke="#000000" stroke-linecap="round" stroke-linejoin="round" stroke-width="3.000000"
	d="
M515.500000,103.000000 
	C508.344482,97.762306 500.239227,94.188477 492.469086,90.058136 
	C476.739288,81.696678 461.020508,73.273224 444.940887,65.624268 
	C432.038055,59.486496 419.132050,53.050617 404.990967,50.042458 
	C395.455048,48.013939 386.115753,45.923542 375.973450,46.604359 
	C366.298523,47.253807 356.381561,45.166569 346.503174,44.887772 
	C338.321014,44.656845 330.172516,42.918507 321.992004,44.968044 
	C321.051056,45.203785 320.000000,45.000000 319.000000,45.000000 
	C305.500000,45.000000 291.999939,45.026890 278.500031,44.992790 
	C263.594513,44.955139 248.803955,46.335907 233.987717,47.882389 
	C219.291153,49.416382 204.853043,51.980919 191.054306,57.145100 
	C183.980316,59.792534 177.516846,64.008408 170.530899,67.070480 
	C155.826859,73.515533 142.229370,82.122177 127.967964,89.437546 
	C122.666092,92.157127 117.154640,94.733917 111.443024,96.291008 
	C107.917175,97.252228 103.759491,96.573868 100.018944,95.895523 
	C95.482994,95.072952 91.208290,96.337486 87.031891,97.161621 
	C76.260223,99.287224 65.351593,99.809006 54.512997,101.108406 
	C49.813538,101.671822 45.723961,100.377586 40.709160,98.717682 
	C37.256908,105.186813 33.900242,111.431839 35.824581,119.541626 
	C36.590851,122.770935 37.248547,123.928749 40.516960,123.064110 
	C41.641998,122.766495 43.161785,122.517082 44.000000,124.000000 
"/>
<path fill="none" opacity="1.000000" stroke="#000000" stroke-linecap="round" stroke-linejoin="round" stroke-width="3.000000"
	d="
M675.000000,181.000000 
	C672.352661,180.664917 670.780396,181.075363 670.914978,184.503342 
	C671.195801,191.658981 671.021118,198.833435 670.985962,205.999924 
	C670.976562,207.918503 671.060608,209.463943 673.480042,210.078659 
	C675.372986,210.559601 676.418274,212.415070 677.649414,213.869949 
	C674.624023,222.312805 667.649353,224.893982 659.991577,225.938156 
	C642.386841,228.338623 624.663879,226.494217 606.998657,226.947693 
	C603.394897,227.040207 599.974487,222.641815 599.967834,219.000061 
	C599.950439,209.460999 600.481079,199.930435 598.065552,190.483246 
	C593.210205,171.493713 573.100525,153.019028 551.009155,151.829788 
	C538.501770,151.156464 526.615112,152.423615 516.073181,159.115311 
	C502.134186,167.963379 495.118439,181.639404 492.015656,197.503052 
	C490.467072,205.420364 489.386475,213.401367 490.100494,221.750000 
	C400.500000,221.750000 311.500000,221.750000 222.000000,221.750000 
	C222.000000,217.513855 222.182007,213.497192 221.968246,209.501694 
	C221.081406,192.925308 216.637421,177.782898 203.477570,166.526215 
	C193.304550,157.824387 181.579300,153.213867 168.001953,152.911880 
	C153.455612,152.588364 140.492538,155.970093 129.460754,165.956650 
	C119.568771,174.911377 114.913475,186.489960 112.060364,199.013748 
	C110.864182,204.264420 110.333344,209.666672 109.443336,215.362717 
	C96.392487,207.890015 82.409264,203.159607 68.010361,199.459671 
	C58.795780,197.091873 49.388447,195.858109 39.989391,195.138580 
	C27.045090,194.147629 25.386139,186.290115 27.052771,176.508987 
	C27.730186,172.533371 30.682732,171.195618 34.500061,171.499237 
	C48.993019,172.651917 62.735996,169.854233 76.019211,164.043915 
	C87.319138,159.101151 92.355339,149.756805 95.008568,138.502014 
	C95.991653,134.331848 97.072144,130.184631 98.248306,125.464783 
	C91.760696,123.959938 85.214317,122.965698 79.048485,120.858147 
	C73.321251,118.900490 68.110161,119.995003 62.467060,120.755608 
	C57.457420,121.430832 52.166668,122.414177 46.639622,120.983505 
	C44.243282,125.826660 44.755939,131.304657 44.093639,136.511917 
	C43.613846,140.284210 43.885197,144.171524 44.046688,147.998032 
	C44.132046,150.020538 43.442265,151.417786 41.500000,151.417786 
	C39.557735,151.417786 38.922760,150.015335 38.952110,147.999298 
	C39.068562,140.000992 39.000000,132.000000 39.000000,124.000000 
"/>
<path fill="none" opacity="1.000000" stroke="#000000" stroke-linecap="round" stroke-linejoin="round" stroke-width="3.000000"
	d="
M489.000000,216.000000 
	C474.166656,216.000000 459.333069,215.942139 444.500061,216.012970 
	C419.499847,216.132339 394.500214,216.384705 369.499969,216.489075 
	C320.666779,216.692963 271.833344,216.833328 223.000000,216.999985 
"/>
<path fill="none" opacity="1.000000" stroke="#000000" stroke-linecap="round" stroke-linejoin="round" stroke-width="3.000000"
	d="
M496.000000,115.500000 
	C497.835785,117.978859 497.128082,120.867676 496.924438,123.494141 
	C495.807617,137.898834 490.396332,151.014725 484.543884,164.019745 
	C480.058228,173.987518 478.413940,184.648514 478.027802,195.500992 
	C477.861511,200.174286 478.000000,204.858414 478.000000,210.000000 
	C474.685486,210.000000 472.342743,210.000000 470.000000,210.000000 
	C425.666656,210.000000 381.333344,210.008347 337.000000,209.995361 
	C322.000000,209.990967 307.006195,210.464874 291.997864,210.083511 
	C281.508881,209.817001 270.998444,210.271011 260.500763,210.530807 
	C256.329468,210.634048 252.097702,210.384155 248.018646,210.160278 
	C243.597015,209.917587 239.584320,207.206543 236.874237,202.573563 
	C227.217499,186.065002 217.060303,170.006851 202.753830,156.726547 
	C197.219925,151.589584 191.374863,147.063522 185.446915,142.570023 
	C180.312500,138.678055 178.314270,133.678864 177.967941,127.501801 
	C176.004456,92.479828 199.447189,66.295998 230.498810,57.995533 
	C240.503235,55.321236 250.644882,53.754379 260.991150,52.893631 
	C279.144592,51.383377 297.306946,51.121067 315.499176,50.923950 
	C330.688965,50.759369 345.849854,51.507088 360.993317,52.156113 
	C380.416779,52.988575 399.112793,57.279068 417.058655,65.369896 
	C444.628326,77.799576 469.609985,94.214378 493.480255,112.525734 
	C494.302399,113.156395 494.833313,114.166672 495.500000,115.000008 
"/>
<path fill="none" opacity="1.000000" stroke="#000000" stroke-linecap="round" stroke-linejoin="round" stroke-width="2.000000"
	d="
M175.500000,252.000000 
	C190.199448,247.908112 201.656845,239.612518 207.932373,225.469986 
	C217.535477,203.828415 209.918320,180.325882 190.947357,168.081558 
	C167.553314,152.982452 136.810669,160.725967 124.240532,186.616776 
	C113.962807,207.785889 120.523972,232.314499 141.511597,245.982208 
	C145.808731,248.780594 150.820648,250.029602 155.500000,252.000000 
"/>
<path fill="none" opacity="1.000000" stroke="#000000" stroke-linecap="round" stroke-linejoin="round" stroke-width="3.000000"
	d="
M554.500000,252.000000 
	C566.623291,248.392471 576.531982,241.950272 583.566772,231.043045 
	C596.109741,211.595459 590.925476,184.861389 573.552307,170.934738 
	C547.568726,150.105743 507.148224,161.578888 499.213470,197.547089 
	C493.976685,221.285461 508.884064,244.853851 532.495056,251.018860 
	C533.200684,251.203110 533.833313,251.666672 534.500000,252.000000 
"/>
<path fill="none" opacity="1.000000" stroke="#000000" stroke-linecap="round" stroke-linejoin="round" stroke-width="3.000000"
	d="
M323.500000,43.000000 
	C320.384125,42.184013 317.203735,42.033531 314.000122,41.990341 
	C291.323547,41.684631 268.642120,41.908592 246.005630,43.106491 
	C226.490555,44.139210 206.810867,45.184246 188.041199,51.130035 
	C166.640656,57.909210 145.772263,66.146645 125.956993,76.920898 
	C116.501259,82.062317 107.181244,87.399101 97.976646,92.961357 
	C97.074287,93.506638 96.256409,93.923080 96.000000,95.000000 
"/>
<path fill="none" opacity="1.000000" stroke="#000000" stroke-linecap="round" stroke-linejoin="round" stroke-width="3.000000"
	d="
M670.000000,188.000000 
	C660.618958,187.351791 652.152039,183.582275 644.071899,179.362320 
	C633.953613,174.077835 624.154053,168.087875 614.255249,162.428085 
	C606.688904,158.101974 598.080017,154.609512 589.472900,152.092606 
	C576.298279,148.240021 562.757019,145.666336 549.004028,146.121292 
	C530.934082,146.719025 514.161621,151.161438 501.474213,165.477158 
	C493.155731,174.863205 488.622223,185.997528 486.074432,198.015778 
	C484.894653,203.580933 483.638245,209.212341 484.000000,215.000000 
"/>
<path fill="none" opacity="1.000000" stroke="#000000" stroke-linecap="round" stroke-linejoin="round" stroke-width="3.000000"
	d="
M545.000000,234.500000 
	C557.602173,233.864273 566.999756,227.693909 570.759888,215.923294 
	C575.468933,201.182098 570.344849,186.112564 552.945129,180.160400 
	C533.478088,173.501038 516.115784,190.400024 516.839661,206.007431 
	C517.568176,221.715195 525.625488,231.587585 541.496521,234.022858 
	C542.523438,234.180435 543.500000,234.666672 544.500000,235.000000 
"/>
<path fill="none" opacity="1.000000" stroke="#000000" stroke-linecap="round" stroke-linejoin="round" stroke-width="3.000000"
	d="
M442.000000,104.000000 
	C447.107727,98.930969 453.338989,98.158432 459.991211,99.542305 
	C463.704681,100.314827 467.838074,99.314461 471.060181,102.437912 
	C472.420044,103.756111 473.866211,104.922653 475.044647,106.465897 
	C476.758087,108.709663 475.925598,110.220116 473.979858,111.468636 
	C472.926208,112.144737 471.710083,112.689865 470.492767,112.968369 
	C463.918457,114.472481 457.220978,115.227379 450.506531,114.875610 
	C448.143463,114.751816 445.995667,113.686287 444.825531,110.565422 
	C442.831360,105.246773 439.106995,100.899170 433.752502,98.093300 
	C435.328339,94.191994 438.790588,93.670708 442.010345,93.054047 
	C444.964081,92.488342 448.156372,93.740685 451.215393,92.159225 
	C447.470123,85.803726 441.478485,82.635979 435.492798,79.513802 
	C421.902496,72.425011 408.318512,65.408676 393.533264,60.891155 
	C382.702087,57.581779 371.626678,56.594578 360.501556,55.484261 
	C350.509186,54.486992 340.497437,55.079945 330.500610,55.127090 
	C327.872986,55.139477 325.090027,54.107002 322.500000,55.500000 
"/>
<path fill="none" opacity="1.000000" stroke="#000000" stroke-linecap="round" stroke-linejoin="round" stroke-width="3.000000"
	d="
M674.500000,210.000000 
	C675.768982,208.955032 676.054993,207.596786 676.022583,205.999542 
	C675.799683,194.995773 676.576172,183.963089 675.009399,172.998657 
	C674.834778,171.776794 675.339600,170.516678 674.028870,169.464066 
	C670.991638,167.025040 671.329712,163.509766 670.851013,160.020432 
	C669.762146,152.082077 665.845886,145.614990 659.020813,140.969437 
	C647.002991,132.789429 633.562744,127.720665 619.980530,123.056679 
	C601.108032,116.576050 581.629517,112.375206 561.985962,109.083771 
	C551.231201,107.281715 540.363953,105.937103 529.492493,105.097137 
	C514.864258,103.966911 500.185089,103.456741 485.500092,103.520767 
	C485.166016,103.522224 484.833344,103.833328 484.500000,103.999992 
"/>
<path fill="none" opacity="1.000000" stroke="#000000" stroke-linecap="round" stroke-linejoin="round" stroke-width="3.000000"
	d="
M523.500000,106.000000 
	C530.024231,112.189636 538.344910,115.034798 546.525146,117.928848 
	C559.118103,122.384064 572.282227,124.234032 585.483337,126.116829 
	C608.597351,129.413437 631.305847,134.259384 652.106140,145.808884 
	C655.912537,147.922424 660.715576,149.279816 665.500000,149.000000 
"/>
<path fill="none" opacity="1.000000" stroke="#000000" stroke-linecap="round" stroke-linejoin="round" stroke-width="2.000000"
	d="
M501.500000,103.000000 
	C493.486511,96.183258 483.984100,91.741943 474.972198,86.548218 
	C459.912292,77.868896 444.325226,70.116745 428.431610,63.156181 
	C412.978760,56.388668 397.261902,49.882469 380.001984,48.962952 
	C379.153290,48.917740 378.333344,48.333344 377.500000,48.000008 
"/>
<path fill="none" opacity="1.000000" stroke="#000000" stroke-linecap="round" stroke-linejoin="round" stroke-width="3.000000"
	d="
M183.000000,101.000000 
	C189.896393,100.040596 196.654739,102.114609 203.499451,101.973480 
	C225.037613,101.529381 246.484894,103.687622 267.997284,104.132019 
	C283.844513,104.459396 299.676086,105.872444 315.496979,107.040909 
	C327.836029,107.952232 340.214355,108.305000 352.511810,109.909546 
	C357.126312,110.511635 361.832184,110.398186 366.514099,110.855797 
	C380.808624,112.252975 395.176880,112.874878 409.496368,114.044518 
	C418.848999,114.808449 428.157196,116.698906 437.502350,116.825569 
	C449.560394,116.989006 461.423492,120.246994 473.492676,118.932793 
	C480.865631,118.129967 488.166656,116.666672 495.500000,115.500008 
"/>
<path fill="none" opacity="1.000000" stroke="#000000" stroke-linecap="round" stroke-linejoin="round" stroke-width="2.000000"
	d="
M200.000000,155.000000 
	C195.477814,155.647110 192.271820,152.253433 188.598312,150.758423 
	C161.931091,139.905655 127.836617,150.330429 113.928894,174.959854 
	C111.424820,179.394379 109.146759,183.903259 107.000000,188.500000 
"/>
<path fill="none" opacity="1.000000" stroke="#000000" stroke-linecap="round" stroke-linejoin="round" stroke-width="3.000000"
	d="
M321.000000,52.000000 
	C322.833313,62.000000 324.932190,71.960594 326.423645,82.011330 
	C327.851959,91.636620 329.159515,101.285095 330.142059,110.985611 
	C330.954559,119.007080 331.077698,126.993500 330.951477,134.999237 
	C330.805817,144.239624 329.371246,153.358292 328.186554,162.524109 
	C326.541443,175.251999 326.177612,188.164413 327.610840,200.987610 
	C327.912140,203.683411 327.724945,206.340103 328.000000,209.000000 
"/>
<path fill="none" opacity="1.000000" stroke="#000000" stroke-linecap="round" stroke-linejoin="round" stroke-width="3.000000"
	d="
M615.500000,162.500000 
	C619.493530,160.991348 623.157837,163.257797 626.999451,163.508255 
	C636.727722,164.142517 646.458679,164.923523 656.086853,162.560486 
	C654.768311,153.961517 649.586060,149.043610 643.072266,144.886734 
	C640.997192,143.562485 638.937195,143.964905 636.976685,143.641266 
	C626.728394,141.949341 616.682434,143.111588 607.013123,146.588379 
	C609.276611,151.617020 611.388306,156.308517 613.500000,161.000000 
"/>
<path fill="none" opacity="1.000000" stroke="#000000" stroke-linecap="round" stroke-linejoin="round" stroke-width="3.000000"
	d="
M320.500000,54.500000 
	C312.521332,55.690102 304.493744,54.998234 296.500610,54.928532 
	C281.950378,54.801651 267.422058,55.029060 253.009201,57.065102 
	C243.097916,58.465221 233.276840,60.579819 224.014572,64.534119 
	C212.618042,69.399597 202.865921,76.426834 195.997879,86.998619 
	C193.177307,91.340248 190.333328,95.666664 187.500000,100.000000 
"/>
<path fill="none" opacity="1.000000" stroke="#000000" stroke-linecap="round" stroke-linejoin="round" stroke-width="3.000000"
	d="
M37.000000,196.000000 
	C34.977959,201.612091 35.075558,207.318924 36.534176,212.991211 
	C37.802944,217.925201 42.632290,220.953003 47.996803,221.109573 
	C60.242531,221.466949 72.417763,222.774551 84.510948,224.938843 
	C94.095978,226.654251 101.979538,222.637100 109.000000,216.500000 
"/>
<path fill="none" opacity="1.000000" stroke="#000000" stroke-linecap="round" stroke-linejoin="round" stroke-width="3.000000"
	d="
M145.000000,131.500000 
	C143.074081,129.956223 144.211136,127.840088 144.034515,125.996696 
	C143.549637,120.936218 141.075760,118.232269 135.998413,118.042580 
	C130.838943,117.849831 125.662766,117.874565 120.501091,118.035110 
	C115.292274,118.197128 113.216103,120.778694 112.914902,125.995087 
	C112.752296,128.811111 113.584457,131.423370 114.184380,133.956329 
	C114.900009,136.977875 117.218262,139.186157 121.001610,139.042313 
	C125.661537,138.865128 130.343704,138.803467 134.997406,139.049240 
	C140.953384,139.363754 143.766129,137.402603 145.000000,132.000000 
"/>
<path fill="none" opacity="1.000000" stroke="#000000" stroke-linecap="round" stroke-linejoin="round" stroke-width="3.000000"
	d="
M675.000000,212.500000 
	C672.330566,217.994415 667.501099,218.561737 662.016235,219.151199 
	C647.967529,220.661072 634.000122,218.901459 619.999939,218.989227 
	C613.650696,219.029022 607.282654,219.296402 601.000000,218.000000 
"/>
<path fill="none" opacity="1.000000" stroke="#000000" stroke-linecap="round" stroke-linejoin="round" stroke-width="3.000000"
	d="
M341.000000,123.500000 
	C345.175171,134.000000 345.175171,134.000000 356.500000,134.000000 
	C360.000000,134.000000 363.500305,134.029678 366.999908,133.992737 
	C371.716522,133.942947 372.329285,132.450790 371.630127,127.979652 
	C370.584351,121.291885 365.219299,121.896881 360.976685,121.128777 
	C356.076935,120.241699 350.996582,120.376442 346.001465,119.981621 
	C343.546326,119.787552 341.648804,120.303558 341.000000,123.000000 
"/>
<path fill="none" opacity="1.000000" stroke="#000000" stroke-linecap="round" stroke-linejoin="round" stroke-width="3.000000"
	d="
M106.500000,98.000000 
	C92.395531,103.758736 77.807159,107.037094 62.506802,105.907829 
	C58.765816,105.631721 54.866299,105.101341 51.500000,103.000000 
"/>
<path fill="none" opacity="1.000000" stroke="#000000" stroke-linecap="round" stroke-linejoin="round" stroke-width="3.000000"
	d="
M46.000000,132.500000 
	C48.006790,144.014999 54.900509,149.618759 66.470970,151.210953 
	C73.871986,152.229385 80.020798,149.681152 86.487007,147.462143 
	C88.304108,146.838577 89.906929,145.547638 92.000000,146.000000 
"/>
<path fill="none" opacity="1.000000" stroke="#000000" stroke-linecap="round" stroke-linejoin="round" stroke-width="3.000000"
	d="
M329.000000,56.000000 
	C332.789459,69.662125 335.214386,83.628143 337.809509,97.535545 
	C338.435577,100.890556 339.281006,104.441490 339.000000,108.000000 
"/>
<path fill="none" opacity="1.000000" stroke="#000000" stroke-linecap="round" stroke-linejoin="round" stroke-width="3.000000"
	d="
M66.000000,211.000000 
	C60.223492,206.810577 53.542484,207.223984 47.008789,207.638535 
	C45.034935,207.763779 41.461864,207.683731 42.062607,211.490112 
	C42.526382,214.428696 44.731026,217.162659 47.476013,216.812149 
	C54.004398,215.978577 61.157230,216.755280 66.500000,211.500000 
"/>
<path fill="none" opacity="1.000000" stroke="#000000" stroke-linecap="round" stroke-linejoin="round" stroke-width="3.000000"
	d="
M313.500000,56.000000 
	C317.285675,72.456192 319.178467,89.158463 320.000000,106.000000 
"/>
<path fill="none" opacity="1.000000" stroke="#000000" stroke-linecap="round" stroke-linejoin="round" stroke-width="3.000000"
	d="
M68.000000,121.000000 
	C67.831322,123.632797 66.100624,125.744263 65.886742,128.491180 
	C65.412560,134.581100 68.559746,138.656784 73.180481,142.431335 
	C79.787949,140.734497 86.346481,136.556305 94.000000,136.000000 
"/>
<path fill="none" opacity="1.000000" stroke="#000000" stroke-linecap="round" stroke-linejoin="round" stroke-width="3.000000"
	d="
M219.000000,68.500000 
	C219.089493,73.558746 216.572296,78.038422 215.777573,82.964111 
	C214.799393,89.026833 215.369690,95.002022 215.000000,101.000000 
"/>
<path fill="none" opacity="1.000000" stroke="#000000" stroke-linecap="round" stroke-linejoin="round" stroke-width="2.000000"
	d="
M38.500000,151.000000 
	C36.999901,151.332840 35.499798,151.665695 33.460236,152.118225 
	C37.333847,158.425446 41.272804,164.866821 33.500000,171.000000 
"/>
<path fill="none" opacity="1.000000" stroke="#000000" stroke-linecap="round" stroke-linejoin="round" stroke-width="2.000000"
	d="
M53.500000,140.000000 
	C59.311890,142.128647 64.915222,145.508667 71.500000,143.000000 
"/>
<path fill="none" opacity="1.000000" stroke="#000000" stroke-linecap="round" stroke-linejoin="round" stroke-width="3.000000"
	d="
M55.000000,122.000000 
	C57.200401,129.522842 55.694466,136.322495 51.000000,142.500000 
"/>
<path fill="none" opacity="1.000000" stroke="#000000" stroke-linecap="round" stroke-linejoin="round" stroke-width="2.000000"
	d="
M465.500000,99.500000 
	C463.100769,95.565170 458.804993,95.246986 454.997864,94.006561 
	C453.845001,93.630920 452.666656,93.333336 451.500000,93.000000 
"/>
<path fill="none" opacity="1.000000" stroke="#000000" stroke-linecap="round" stroke-linejoin="round" stroke-width="3.000000"
	d="
M197.500000,115.000000 
	C193.104309,119.031700 197.335953,122.728416 198.078781,126.484421 
	C198.722382,129.738586 201.672729,128.985413 204.000015,128.993393 
	C209.833282,129.013397 215.666824,129.025558 221.499954,128.991318 
	C225.618393,128.967148 226.712265,127.288811 226.063309,123.489189 
	C224.888168,116.608810 219.332214,116.426979 214.491257,116.156502 
	C208.986496,115.848938 203.565079,114.259621 198.000000,115.000000 
"/>
<path fill="none" opacity="1.000000" stroke="#000000" stroke-linecap="round" stroke-linejoin="round" stroke-width="3.000000"
	d="
M634.500000,191.000000 
	C630.855286,194.666672 634.316406,198.341232 634.560974,201.995926 
	C634.652710,203.366470 635.533264,204.770233 636.138184,205.927780 
	C638.561584,210.565292 641.659607,214.462051 648.011475,213.051559 
	C652.769043,211.995087 657.699036,212.160553 662.536011,211.176971 
	C666.256775,210.420349 666.935608,208.296722 666.928162,205.500198 
	C666.920593,202.665985 666.285095,199.837952 666.013367,196.998718 
	C665.734314,194.082535 663.137939,194.552811 661.479309,194.071365 
	C652.843628,191.564728 644.012024,190.421402 635.000000,191.000000 
"/>
<path fill="none" opacity="1.000000" stroke="#000000" stroke-linecap="round" stroke-linejoin="round" stroke-width="3.000000"
	d="
M161.000000,179.000000 
	C151.440521,181.242477 143.923386,186.441574 140.116562,195.548721 
	C136.244949,204.810867 136.954865,214.088120 143.012619,222.490906 
	C149.145309,230.997604 157.502411,235.507156 167.989441,234.399963 
	C182.135025,232.906509 192.093567,224.151718 193.776535,208.975220 
	C195.082977,197.194321 187.739746,184.101868 174.014542,179.951904 
	C169.852814,178.693558 165.681747,179.144806 161.500000,179.000000 
"/>
</svg>