<svg version="1.1" id="Layer_1" xmlns="http://www.w3.org/2000/svg" xmlns:xlink="http://www.w3.org/1999/xlink" x="0px" y="0px"
	 width="100%" viewBox="0 0 325 289" enable-background="new 0 0 325 289" xml:space="preserve">
<path fill="none" opacity="1.000000" stroke="#000000" stroke-linecap="round" stroke-linejoin="round" stroke-width="3.000000"
	d="
M273.500000,136.500000 
	C274.646912,129.447311 271.502502,123.619019 267.960236,118.025192 
	C263.782135,111.427353 257.756927,106.219574 254.851883,98.556152 
	C251.204178,88.933632 247.930496,79.103035 242.982697,70.009415 
	C240.414429,65.289207 237.891373,60.519100 234.946747,56.034981 
	C230.649307,49.490837 224.083313,46.504356 216.497482,46.041218 
	C186.027481,44.180935 155.520706,43.439190 125.001328,44.064621 
	C110.993546,44.351681 96.972519,44.994438 83.010277,46.126728 
	C74.594536,46.809219 68.320206,51.381969 63.912319,58.948925 
	C56.573994,71.546516 50.881218,84.838928 46.061310,98.521599 
	C43.557735,105.628708 38.103134,110.570595 33.983425,116.488464 
	C29.365408,123.122116 26.846373,130.052841 26.683601,138.493896 
	C26.533602,146.272583 26.714806,153.989670 26.794701,161.752106 
	C26.970524,178.834991 26.618393,195.938965 27.606508,212.993835 
	C28.322046,225.343994 27.678259,237.668304 27.981739,250.000443 
	C28.123327,255.753922 30.243858,257.975067 36.000011,257.996765 
	C40.333282,258.013123 44.701221,257.657013 48.991016,258.089172 
	C54.045109,258.598328 58.089016,255.036179 58.015907,248.999802 
	C57.943245,243.000687 58.000000,237.000000 58.000000,231.000000 
"/>
<path fill="none" opacity="1.000000" stroke="#000000" stroke-linecap="round" stroke-linejoin="round" stroke-width="3.000000"
	d="
M231.500000,61.000000 
	C231.628159,56.969604 228.814880,56.983814 226.000000,56.999989 
	C208.325134,57.101551 190.686905,55.789242 172.999680,55.821331 
	C162.180115,55.840965 151.329376,55.404121 140.500809,55.557072 
	C118.664764,55.865482 96.834167,56.544037 74.999176,56.956532 
	C71.371651,57.025059 69.681969,58.391991 68.375923,61.954514 
	C63.054886,76.468811 56.393154,90.432022 49.996819,104.498550 
	C48.005379,108.878029 48.989788,110.998001 54.005859,111.432327 
	C64.500053,112.340996 75.005249,112.575325 85.508858,111.061447 
	C90.122902,110.396423 94.802177,108.966438 99.525215,110.939651 
	C100.518509,111.354630 101.833336,111.000000 103.000000,111.000000 
	C120.000000,111.000000 137.000443,110.932281 153.999695,111.045097 
	C158.550690,111.075302 162.726440,109.115723 167.522751,109.851738 
	C183.093262,112.241127 198.908524,109.816460 214.469543,111.316109 
	C222.425537,112.082848 230.200455,110.368088 237.992569,111.549004 
	C241.204071,112.035713 244.265213,112.107452 247.517670,111.617294 
	C251.363998,111.037636 252.242844,109.289665 250.978561,106.008263 
	C249.743835,102.803604 248.377808,99.647057 246.992065,96.503494 
	C241.845306,84.828056 236.666672,73.166664 231.500000,61.500000 
"/>
<path fill="none" opacity="1.000000" stroke="#000000" stroke-linecap="round" stroke-linejoin="round" stroke-width="3.000000"
	d="
M231.000000,61.000000 
	C226.705429,60.162746 222.361206,60.117771 218.001938,59.949661 
	C197.840103,59.172165 177.676086,58.726734 157.500076,59.005589 
	C136.332809,59.298141 115.147636,58.162613 93.995384,59.945194 
	C89.527115,60.321754 84.999443,60.043468 80.500175,59.986122 
	C76.956673,59.940960 73.428078,59.911453 70.000000,61.000000 
"/>
<path fill="none" opacity="1.000000" stroke="#000000" stroke-linecap="round" stroke-linejoin="round" stroke-width="3.000000"
	d="
M272.000000,224.500000 
	C266.255890,227.737198 260.038513,228.854523 253.501602,229.052917 
	C246.166718,229.275558 238.851944,229.932190 231.506424,230.185867 
	C225.409882,230.396393 220.263626,229.033585 216.115509,224.884521 
	C214.727905,223.496613 213.766846,223.156143 212.531158,224.043396 
	C208.567032,226.889755 204.123978,227.044495 199.499924,227.034439 
	C168.833405,226.967865 138.166443,226.936295 107.500160,227.045258 
	C99.927612,227.072174 92.422653,227.248077 85.500000,223.500000 
"/>
<path fill="none" opacity="1.000000" stroke="#000000" stroke-linecap="round" stroke-linejoin="round" stroke-width="3.000000"
	d="
M217.500000,113.000000 
	C213.666672,113.333328 209.833893,113.948563 205.999908,113.956215 
	C169.333389,114.029480 132.666611,114.031906 96.000092,113.956032 
	C91.832756,113.947411 87.666664,113.333336 83.500000,113.000000 
"/>
<path fill="none" opacity="1.000000" stroke="#000000" stroke-linecap="round" stroke-linejoin="round" stroke-width="3.000000"
	d="
M83.000000,167.500000 
	C81.142647,162.226257 81.246017,156.545517 78.228493,151.366867 
	C75.567413,146.799927 72.199020,144.704285 67.495514,144.031372 
	C58.510963,142.746017 49.497257,143.627274 40.502426,144.051422 
	C38.801678,144.131622 37.132359,144.878189 35.064014,145.417572 
	C34.709877,150.304901 35.583103,154.971146 37.045227,159.485352 
	C38.964802,165.411926 44.575584,166.710037 49.531345,167.865555 
	C60.209789,170.355438 71.102959,170.790085 81.994255,168.965714 
	C82.372803,168.902313 82.666664,168.333328 83.000000,168.000000 
"/>
<path fill="none" opacity="1.000000" stroke="#000000" stroke-linecap="round" stroke-linejoin="round" stroke-width="3.000000"
	d="
M208.500000,150.500000 
	C201.902161,147.953995 194.832138,147.801193 187.984314,147.170334 
	C174.205170,145.900909 160.357529,144.538559 146.503784,145.094421 
	C132.153442,145.670181 117.826797,146.917603 103.504333,148.054550 
	C99.642410,148.361099 95.833336,149.333344 92.000000,150.000000 
"/>
<path fill="none" opacity="1.000000" stroke="#000000" stroke-linecap="round" stroke-linejoin="round" stroke-width="3.000000"
	d="
M28.000000,163.000000 
	C31.028963,168.019943 33.295975,173.598404 38.494308,177.008682 
	C42.153141,179.408981 46.044926,180.826813 50.497913,181.042969 
	C66.806747,181.834656 82.416161,185.102417 96.593559,193.848343 
	C98.383202,194.952362 98.590187,195.827621 99.092148,197.471863 
	C100.666031,202.627365 101.838676,208.042999 105.996223,212.003967 
	C108.804276,214.679276 112.052109,216.044266 116.000114,216.027618 
	C131.833160,215.960831 147.666687,215.985077 163.499985,216.007202 
	C170.000046,216.016281 176.479233,216.358566 183.004913,216.189438 
	C192.584412,215.941193 198.350922,211.188705 200.826324,200.459930 
	C201.805466,196.216278 203.297028,195.082565 207.493790,194.874710 
	C222.531204,194.129959 237.363235,192.434311 251.045578,185.084854 
	C261.322113,179.564819 268.511627,171.607864 273.000000,161.000000 
"/>
<path fill="none" opacity="1.000000" stroke="#000000" stroke-linecap="round" stroke-linejoin="round" stroke-width="3.000000"
	d="
M98.000000,168.000000 
	C96.764671,168.833328 97.630363,170.036560 98.054375,170.443314 
	C102.778160,174.974960 108.192604,178.020523 115.000015,178.011765 
	C138.666641,177.981323 162.333344,177.988007 186.000000,178.007675 
	C192.661758,178.013214 198.871017,175.742111 202.237808,170.336700 
	C205.191269,165.594925 208.478287,160.292984 208.885315,154.491959 
	C210.181747,136.015152 221.440033,125.217010 236.443939,116.898872 
	C237.943069,116.067757 240.945084,116.111755 240.500000,113.000000 
"/>
<path fill="none" opacity="1.000000" stroke="#000000" stroke-linecap="round" stroke-linejoin="round" stroke-width="3.000000"
	d="
M60.000000,113.000000 
	C60.219513,114.780487 61.473682,115.297569 62.958416,116.079010 
	C72.034973,120.856140 79.952179,127.074051 86.013184,135.490509 
	C89.793640,140.740143 91.429436,146.853653 91.862938,153.009659 
	C92.730637,165.331543 102.812424,172.671799 115.489136,173.241699 
	C133.505478,174.051682 151.498337,173.844391 169.500320,173.939056 
	C176.665039,173.976715 183.830933,173.259750 191.000854,173.026123 
	C195.699478,172.873047 198.359589,168.691254 202.500000,167.500000 
"/>
<path fill="none" opacity="1.000000" stroke="#000000" stroke-linecap="round" stroke-linejoin="round" stroke-width="3.000000"
	d="
M251.000000,111.000000 
	C260.548431,117.893990 267.368134,127.242729 273.337921,137.098175 
	C276.043793,141.565231 275.295715,147.309982 274.927551,152.494858 
	C274.324127,160.992767 273.928772,169.488052 274.018341,177.999802 
	C274.155426,191.027740 273.382019,204.005829 272.659607,217.008865 
	C272.050842,227.965790 272.873230,238.999603 272.983673,250.000168 
	C273.041443,255.755341 270.756134,257.976013 265.000000,257.996613 
	C260.333405,258.013306 255.665985,258.050079 251.000183,257.986328 
	C246.040253,257.918640 243.089203,255.003922 243.020889,249.999710 
	C242.934448,243.667572 243.000000,237.333328 243.000000,231.000000 
"/>
<path fill="none" opacity="1.000000" stroke="#000000" stroke-linecap="round" stroke-linejoin="round" stroke-width="3.000000"
	d="
M175.500000,199.500000 
	C174.289459,194.221497 175.578217,188.786774 174.709824,183.250000 
	C158.166672,183.250000 141.833328,183.250000 125.000000,183.250000 
	C125.000000,192.833328 125.000000,202.166672 125.000000,211.750000 
	C141.833328,211.750000 158.166672,211.750000 174.517731,211.750000 
	C176.231949,207.788284 173.974777,203.729691 175.500000,200.000000 
"/>
<path fill="none" opacity="1.000000" stroke="#000000" stroke-linecap="round" stroke-linejoin="round" stroke-width="3.000000"
	d="
M159.500000,108.000000 
	C155.349838,106.142715 150.763458,106.465324 146.487625,106.197746 
	C130.803284,105.216240 115.125977,106.386063 99.503922,108.037094 
	C99.139427,108.075615 98.833336,108.666664 98.500000,109.000000 
"/>
<path fill="none" opacity="1.000000" stroke="#000000" stroke-linecap="round" stroke-linejoin="round" stroke-width="3.000000"
	d="
M229.500000,109.000000 
	C224.467499,107.293602 219.159225,107.338066 213.994904,107.121979 
	C204.012375,106.704292 193.990906,106.750786 184.004211,107.115395 
	C179.648193,107.274429 175.026794,107.072624 171.000000,109.500000 
"/>
<path fill="none" opacity="1.000000" stroke="#000000" stroke-linecap="round" stroke-linejoin="round" stroke-width="3.000000"
	d="
M84.500000,223.000000 
	C82.398453,221.044159 78.739395,221.240326 77.688759,222.205475 
	C73.322891,226.216095 68.212547,225.391617 63.519630,224.834595 
	C55.020061,223.825775 46.317318,225.184372 37.943516,222.156189 
	C34.779739,221.012070 32.511745,218.181900 29.000000,218.000000 
"/>
<path fill="none" opacity="1.000000" stroke="#000000" stroke-linecap="round" stroke-linejoin="round" stroke-width="3.000000"
	d="
M272.000000,217.500000 
	C263.569550,223.444916 253.891052,224.363525 244.000259,224.516739 
	C239.665390,224.583908 235.328995,224.762939 231.001801,225.029266 
	C228.790726,225.165375 226.690979,224.826630 225.032806,223.460190 
	C222.215454,221.138535 219.432526,221.480438 216.500000,223.000000 
"/>
<path fill="none" opacity="1.000000" stroke="#000000" stroke-linecap="round" stroke-linejoin="round" stroke-width="3.000000"
	d="
M298.000000,105.500000 
	C299.898254,99.845322 296.215515,95.239029 289.527130,96.190628 
	C284.479950,96.908752 279.489685,95.896790 274.472229,96.854492 
	C272.120178,97.303444 270.089813,97.682236 268.504150,99.502518 
	C271.610382,104.591743 268.645844,108.515228 266.000000,112.500000 
"/>
<path fill="none" opacity="1.000000" stroke="#000000" stroke-linecap="round" stroke-linejoin="round" stroke-width="2.000000"
	d="
M124.000000,199.500000 
	C117.329170,199.500000 110.658333,199.500000 104.000000,199.500000 
	C104.000000,200.333328 103.906677,200.700577 104.013672,200.995026 
	C106.559570,208.001434 106.563499,208.000000 114.000000,208.000000 
	C117.333336,208.000000 120.666664,208.000000 124.000000,208.000000 
"/>
<path fill="none" opacity="1.000000" stroke="#000000" stroke-linecap="round" stroke-linejoin="round" stroke-width="3.000000"
	d="
M287.500000,98.000000 
	C288.726288,99.282501 290.762665,99.042351 291.942780,100.065971 
	C294.360107,102.162796 297.470154,104.412827 296.873016,107.978737 
	C296.048065,112.904976 290.362549,117.086655 285.002319,116.923904 
	C279.608551,116.760132 274.482361,117.523895 269.500000,119.500000 
"/>
<path fill="none" opacity="1.000000" stroke="#000000" stroke-linecap="round" stroke-linejoin="round" stroke-width="3.000000"
	d="
M38.000000,109.500000 
	C37.000000,108.166664 35.464016,106.968140 35.089119,105.477585 
	C33.033718,97.305458 27.094265,96.091156 19.997980,96.461266 
	C17.339649,96.599907 14.701299,96.578476 11.975898,96.155182 
	C8.062133,95.547318 3.910621,97.187309 2.216475,100.607239 
	C0.471284,104.130203 3.280117,107.917931 5.149400,110.906555 
	C7.817593,115.172493 12.167589,117.537552 17.497194,116.973480 
	C22.281935,116.467087 26.635477,117.935089 31.000000,119.500000 
"/>
<path fill="none" opacity="1.000000" stroke="#000000" stroke-linecap="round" stroke-linejoin="round" stroke-width="3.000000"
	d="
M29.000000,224.500000 
	C32.996338,227.510986 37.919773,228.537766 42.511314,228.807053 
	C53.484974,229.450577 64.468483,230.701569 75.500053,230.000900 
	C79.580887,229.741699 81.931015,226.502060 85.000000,224.500000 
"/>
<path fill="none" opacity="1.000000" stroke="#000000" stroke-linecap="round" stroke-linejoin="round" stroke-width="3.000000"
	d="
M50.000000,111.000000 
	C40.691189,117.995110 33.385967,126.685562 28.000000,137.000000 
"/>
<path fill="none" opacity="1.000000" stroke="#000000" stroke-linecap="round" stroke-linejoin="round" stroke-width="2.000000"
	d="
M176.000000,199.500000 
	C182.849289,199.500000 189.698578,199.500000 196.894730,199.500000 
	C196.076965,202.521210 195.585892,204.525040 194.986084,206.495758 
	C194.436310,208.302017 192.880295,207.999649 191.500000,207.999786 
	C186.333328,208.000320 181.166672,208.000000 176.000000,208.000000 
"/>
<path fill="none" opacity="1.000000" stroke="#000000" stroke-linecap="round" stroke-linejoin="round" stroke-width="3.000000"
	d="
M31.500000,101.000000 
	C29.935787,105.796509 32.593113,109.361732 35.000000,113.000000 
"/>
<path fill="none" opacity="1.000000" stroke="#000000" stroke-linecap="round" stroke-linejoin="round" stroke-width="3.000000"
	d="
M13.500000,98.000000 
	C9.167741,99.282524 6.247403,102.241707 4.000000,106.000000 
"/>
<path fill="none" opacity="1.000000" stroke="#000000" stroke-linecap="round" stroke-linejoin="round" stroke-width="2.000000"
	d="
M268.000000,101.500008 
	C266.166687,104.166672 264.333344,106.833344 262.500000,109.500008 
"/>
<path fill="none" opacity="1.000000" stroke="#000000" stroke-linecap="round" stroke-linejoin="round" stroke-width="3.000000"
	d="
M244.000000,143.000000 
	C241.213699,143.733109 238.383224,144.001968 235.500107,144.018646 
	C228.647369,144.058243 223.215576,147.726089 221.038208,154.013229 
	C219.472961,158.532867 218.402802,163.205368 217.912888,168.363297 
	C225.556412,170.190491 233.232178,170.605804 240.999130,169.493912 
	C246.098129,168.763962 251.151459,168.063492 256.033051,166.081390 
	C262.725830,163.363892 264.726532,161.408585 264.916229,154.497696 
	C264.996094,151.589172 266.954865,148.984894 265.627991,145.410294 
	C259.115631,142.976868 251.606400,144.431870 244.500000,143.000000 
"/>
<path fill="none" opacity="1.000000" stroke="#000000" stroke-linecap="round" stroke-linejoin="round" stroke-width="3.000000"
	d="
M40.500000,191.000000 
	C39.330624,191.164642 38.744354,191.920502 39.026093,192.993149 
	C40.299717,197.842163 41.551903,202.702271 43.036507,207.488678 
	C44.213062,211.281952 47.544216,212.656296 51.006138,212.919174 
	C57.989079,213.449432 64.960175,214.126602 71.999603,214.145721 
	C76.410805,214.157700 77.074425,210.994583 77.817116,208.446686 
	C78.534599,205.985275 78.691406,203.237915 75.069649,201.365295 
	C64.297295,195.795441 53.007774,192.316101 41.000000,191.000000 
"/>
<path fill="none" opacity="1.000000" stroke="#000000" stroke-linecap="round" stroke-linejoin="round" stroke-width="3.000000"
	d="
M258.000000,191.000000 
	C251.145111,192.578323 244.061996,193.356293 237.528534,196.068741 
	C233.273468,197.835281 228.913727,199.330307 224.912369,201.861465 
	C221.561890,203.980865 222.700043,206.660706 223.163956,208.967026 
	C223.585510,211.062866 224.176041,213.887589 227.499283,214.018082 
	C235.390106,214.327957 243.190323,213.442139 251.003998,212.534439 
	C255.337036,212.031067 256.932220,209.088425 257.996246,205.498886 
	C259.330109,200.998978 260.636475,196.490936 261.961090,191.964539 
	C261.169373,190.490494 259.728271,191.117752 258.500000,191.000000 
"/>
</svg>