<svg version="1.1" id="Layer_1" xmlns="http://www.w3.org/2000/svg" xmlns:xlink="http://www.w3.org/1999/xlink" x="0px" y="0px"
	 width="100%" viewBox="0 0 681 294" enable-background="new 0 0 681 294" xml:space="preserve">
<path fill="none" opacity="1.000000" stroke="#000000" stroke-linecap="round" stroke-linejoin="round" stroke-width="3.000000"
	d="
M33.000000,177.000000 
	C35.333775,176.666229 36.083309,177.662231 36.045967,180.000732 
	C35.923584,187.665451 35.963745,195.333633 36.028522,202.999756 
	C36.042625,204.668564 35.454285,205.506805 34.074566,206.594574 
	C29.971708,209.829285 29.968370,212.936768 33.497276,216.502701 
	C37.769085,220.819336 43.455715,222.134583 49.015026,222.889328 
	C65.941040,225.187164 83.000893,223.618851 100.000648,223.968552 
	C104.325439,224.057541 105.267159,219.585220 108.154060,217.926163 
	C105.376877,193.985291 109.383331,172.884018 130.020615,158.028625 
	C137.014053,152.994522 144.801712,150.169785 153.473236,148.827179 
	C165.693710,146.935120 177.093399,148.402634 187.991730,154.016068 
	C201.994812,161.228638 209.745804,173.270020 214.016754,187.995148 
	C216.814972,197.642639 217.179550,207.639282 218.402344,217.750000 
	C307.166656,217.750000 395.833344,217.750000 485.070862,217.750000 
	C484.426270,208.011612 485.654388,198.665237 488.030121,189.507812 
	C494.163452,165.866379 513.383423,152.334625 533.496033,149.966217 
	C567.589111,145.951523 588.362915,165.119186 594.951294,193.011505 
	C596.108582,197.910812 597.532227,202.870667 596.936462,207.992615 
	C596.715271,209.894440 597.455811,211.769089 598.158508,212.901657 
	C601.600586,218.449585 614.825439,222.801224 621.513733,221.574982 
	C627.950195,220.394928 634.488342,219.723526 641.003357,219.031357 
	C647.311218,218.361206 653.695251,218.351273 659.982727,217.802063 
	C668.179443,217.086090 670.774170,213.330917 671.971069,204.995850 
	C672.550964,200.957748 671.500732,196.986053 671.000000,193.000000 
"/>
<path fill="none" opacity="1.000000" stroke="#000000" stroke-linecap="round" stroke-linejoin="round" stroke-width="3.000000"
	d="
M219.000000,213.000000 
	C307.333344,213.000000 395.666656,213.000000 484.000000,213.000000 
"/>
<path fill="none" opacity="1.000000" stroke="#000000" stroke-linecap="round" stroke-linejoin="round" stroke-width="3.000000"
	d="
M223.500000,101.000000 
	C221.583496,104.539078 217.847610,106.040672 214.928833,108.412422 
	C212.039017,110.760643 211.011536,113.371101 210.932144,116.998512 
	C210.611923,131.629440 215.820541,144.607391 221.871338,157.560104 
	C226.248001,166.929108 228.242981,177.065125 229.173080,187.484543 
	C229.738831,193.822372 229.779999,200.184036 230.096405,207.000000 
	C232.155945,207.000000 233.827972,207.000000 235.500000,207.000000 
	C281.500000,207.000000 327.500000,207.000000 373.500000,207.000000 
	C400.500000,207.000000 427.501617,206.834991 454.499054,207.098083 
	C462.865753,207.179626 467.991699,203.785431 472.155792,196.590164 
	C478.867401,184.993073 485.713867,173.397537 494.965881,163.468201 
	C502.880371,154.974274 510.583405,146.151703 520.582642,140.137344 
	C528.004211,135.673355 529.802063,128.801102 529.792908,121.500259 
	C529.783142,113.762604 529.164673,105.848175 526.000000,98.500000 
"/>
<path fill="none" opacity="1.000000" stroke="#000000" stroke-linecap="round" stroke-linejoin="round" stroke-width="2.000000"
	d="
M417.500000,40.999992 
	C417.000000,41.166660 416.502075,41.472172 415.999695,41.479706 
	C403.166748,41.672100 390.259064,42.770210 377.519043,41.759975 
	C362.016266,40.530670 346.819611,43.051094 331.496857,43.226734 
	C322.308716,43.332054 313.369385,43.945969 304.507629,46.032364 
	C294.300659,48.435467 284.591583,52.335651 275.005951,56.513676 
	C254.690216,65.368561 235.164062,75.855537 215.612198,86.211823 
	C207.473206,90.522903 198.602661,93.795036 191.500000,100.000000 
"/>
<path fill="none" opacity="1.000000" stroke="#000000" stroke-linecap="round" stroke-linejoin="round" stroke-width="3.000000"
	d="
M668.500000,120.000000 
	C670.788818,119.118835 672.126770,117.903526 672.101074,114.999107 
	C672.053284,109.583153 671.418396,104.474831 669.112000,99.448624 
	C667.628906,96.216621 666.380859,94.907913 662.969543,96.949059 
	C660.288086,98.553444 657.328735,96.909035 654.500793,97.020012 
	C641.304504,97.537880 628.417297,95.167465 615.492798,93.043846 
	C613.201660,92.667404 611.765503,91.135445 609.993469,90.010246 
	C587.857117,75.953926 564.796387,63.750141 540.015991,54.954895 
	C537.183838,53.949677 534.153870,53.091972 531.600037,51.801979 
	C526.020691,48.983807 521.604919,49.400963 517.860840,54.133064 
	C501.625427,48.418793 485.208435,45.753334 468.519653,43.829632 
	C452.530701,41.986595 436.463867,42.578110 420.500000,41.000000 
"/>
<path fill="none" opacity="1.000000" stroke="#000000" stroke-linecap="round" stroke-linejoin="round" stroke-width="3.000000"
	d="
M378.500000,104.500000 
	C427.462402,101.377068 476.449768,98.778282 525.975037,97.675438 
	C519.946960,82.739449 510.678955,70.992828 496.982971,63.029282 
	C482.795624,54.780010 467.148682,51.667919 451.009613,49.911766 
	C429.688324,47.591709 408.360199,48.392063 387.002014,48.232475 
	C371.806793,48.118938 356.638123,48.163147 341.506897,49.110252 
	C324.858032,50.152351 308.929199,54.230988 293.431335,60.838951 
	C270.057129,70.805214 248.681488,84.002159 228.060989,98.586227 
	C225.837036,100.159142 224.022385,100.169861 221.499817,100.167068 
	C214.674667,100.159508 207.828033,99.132736 200.987076,100.431969 
	C198.064377,100.987045 195.084854,101.112221 191.976669,100.660530 
	C188.722748,100.187653 185.840439,101.612129 182.867279,103.821396 
	C175.895935,109.001579 167.814636,112.309250 159.513336,115.040527 
	C146.484329,119.327324 133.023483,121.170021 119.512779,123.089928 
	C97.818237,126.172775 76.593430,131.105560 56.980785,141.463623 
	C52.324512,143.922729 47.194897,145.149643 42.000000,146.000000 
"/>
<path fill="none" opacity="1.000000" stroke="#000000" stroke-linecap="round" stroke-linejoin="round" stroke-width="3.000000"
	d="
M224.000000,212.000000 
	C222.385605,202.418823 221.354630,192.823700 218.169525,183.442444 
	C210.729477,161.528778 195.470688,148.736160 173.452438,144.232544 
	C163.734680,142.244873 153.609756,142.647171 143.475006,143.775467 
	C127.114502,145.596878 111.880211,150.190231 97.479805,157.962570 
	C96.635712,158.418152 95.500015,158.333420 93.544060,158.659485 
	C95.889778,153.333038 98.037094,148.457123 100.320518,143.272141 
	C97.178474,141.407059 93.732246,141.133759 90.487740,140.570633 
	C82.879677,139.250183 74.828415,138.795227 67.593063,140.415558 
	C60.154366,142.081436 54.291702,147.934418 52.068378,156.018799 
	C51.655163,157.521317 51.451672,159.659790 54.001366,159.989456 
	C61.480408,160.956467 68.935226,161.346695 76.511253,160.616821 
	C82.204414,160.068314 87.689034,157.940140 93.862717,158.523132 
	C91.395386,161.843079 87.572655,162.694824 84.453102,164.414948 
	C70.180328,172.284958 56.336643,181.154221 40.022743,184.607437 
	C38.994076,184.825180 37.986935,184.754944 37.000000,185.000000 
"/>
<path fill="none" opacity="1.000000" stroke="#000000" stroke-linecap="round" stroke-linejoin="round" stroke-width="3.000000"
	d="
M522.500000,49.000000 
	C510.231689,44.481731 497.409424,42.737984 484.498657,41.514156 
	C464.046478,39.575474 443.550232,38.723648 422.999603,38.966812 
	C408.501648,39.138359 394.000000,38.997803 379.500000,39.002190 
	C377.121368,39.002911 374.712067,38.817833 372.500000,40.000000 
"/>
<path fill="none" opacity="1.000000" stroke="#000000" stroke-linecap="round" stroke-linejoin="round" stroke-width="3.000000"
	d="
M183.000000,102.500000 
	C176.613800,100.657944 170.304184,102.816223 164.012466,103.202850 
	C155.794891,103.707817 147.676880,105.733353 139.497696,106.984955 
	C125.951767,109.057785 112.669853,112.253929 99.494339,115.979980 
	C84.434814,120.238815 69.979164,125.944382 55.965916,132.931641 
	C45.854092,137.973587 38.577011,145.041275 36.539486,156.507019 
	C35.880486,160.215408 35.544132,163.828995 33.083752,167.063705 
	C30.508348,170.449615 32.265438,174.685226 32.108627,178.504456 
	C31.760231,186.990158 31.972197,195.500229 32.043655,203.999634 
	C32.050690,204.835709 32.666668,205.666672 33.000000,206.500000 
"/>
<path fill="none" opacity="1.000000" stroke="#000000" stroke-linecap="round" stroke-linejoin="round" stroke-width="3.000000"
	d="
M386.000000,51.500000 
	C376.333344,50.502338 366.634857,50.772781 357.011444,51.628719 
	C350.843323,52.177330 344.667511,52.061657 338.476074,52.799107 
	C325.921295,54.294487 313.608002,56.513565 302.034668,61.579224 
	C290.636261,66.568306 279.349213,71.856560 268.502136,78.003754 
	C264.641785,80.191475 261.026184,82.685646 257.957733,85.960403 
	C257.046356,86.933067 256.933105,87.866585 257.000000,89.000000 
"/>
<path fill="none" opacity="1.000000" stroke="#000000" stroke-linecap="round" stroke-linejoin="round" stroke-width="2.000000"
	d="
M327.500000,45.000000 
	C323.315125,46.605255 318.813110,46.547802 314.495850,47.480843 
	C296.262726,51.421364 279.612183,59.418434 263.006592,67.513512 
	C244.552689,76.509613 226.287415,85.859901 208.974609,96.960396 
	C208.094925,97.524422 207.256409,97.923080 207.000000,99.000000 
"/>
<path fill="none" opacity="1.000000" stroke="#000000" stroke-linecap="round" stroke-linejoin="round" stroke-width="3.000000"
	d="
M377.500000,105.000000 
	C363.950348,105.329559 350.483521,106.725609 336.986389,107.834488 
	C327.834106,108.586403 318.660400,109.241066 309.498962,109.987114 
	C298.654236,110.870232 287.820007,111.954681 276.984436,112.800720 
	C267.990967,113.502922 259.005859,114.406662 250.003235,115.045639 
	C243.320114,115.519981 236.683395,116.808113 229.994736,115.019669 
	C224.584259,113.572983 218.824738,113.963951 213.500000,112.000000 
"/>
<path fill="none" opacity="1.000000" stroke="#000000" stroke-linecap="round" stroke-linejoin="round" stroke-width="3.000000"
	d="
M600.000000,185.500000 
	C595.808594,173.236008 589.282959,162.543457 578.478516,155.030914 
	C557.521729,140.459259 535.436646,139.302261 512.500061,150.000122 
	C510.725220,150.827942 509.470428,153.085373 507.000000,152.000000 
"/>
<path fill="none" opacity="1.000000" stroke="#000000" stroke-linecap="round" stroke-linejoin="round" stroke-width="3.000000"
	d="
M520.000000,97.000000 
	C513.556152,84.938477 505.846375,73.868629 493.965057,66.556755 
	C484.014465,60.433094 473.032867,56.883305 461.501770,54.989292 
	C439.127716,51.314297 416.629578,50.342125 393.993866,51.363789 
	C391.588623,51.472351 389.001282,51.147541 386.500000,51.000000 
"/>
<path fill="none" opacity="1.000000" stroke="#000000" stroke-linecap="round" stroke-linejoin="round" stroke-width="3.000000"
	d="
M67.500000,187.000000 
	C59.977734,188.208084 52.287052,188.435013 44.993591,190.981644 
	C42.310802,191.918396 40.291847,193.138489 40.970364,196.505966 
	C41.163990,197.466965 41.000000,198.500000 41.000000,199.500000 
	C41.000004,206.825912 42.517300,208.505157 50.001637,208.973846 
	C54.826385,209.276001 59.685589,208.612320 64.507469,209.457382 
	C65.287636,209.594116 66.544174,209.462463 66.942062,208.954605 
	C71.292122,203.402649 74.861366,197.496964 73.988770,190.001312 
	C73.527916,186.042526 69.821861,188.356277 68.000000,187.000000 
"/>
<path fill="none" opacity="1.000000" stroke="#000000" stroke-linecap="round" stroke-linejoin="round" stroke-width="3.000000"
	d="
M519.000000,54.500000 
	C526.463623,59.572777 534.915894,62.666946 542.997253,66.505791 
	C555.676941,72.528984 567.640564,79.883369 580.022949,86.456734 
	C585.861267,89.556068 592.110168,92.375771 598.541138,93.164841 
	C602.559998,93.657959 607.347412,94.066437 611.500000,92.000000 
"/>
<path fill="none" opacity="1.000000" stroke="#000000" stroke-linecap="round" stroke-linejoin="round" stroke-width="3.000000"
	d="
M335.000000,127.500000 
	C336.523590,130.286163 338.713043,131.304108 342.005829,131.089020 
	C347.150513,130.752930 352.333435,130.982712 357.499969,131.008057 
	C359.739105,131.019058 361.940674,131.332703 363.042938,128.516815 
	C364.321655,125.250237 366.587952,122.121040 365.844391,118.532234 
	C365.467804,116.714478 363.343231,115.467728 361.000397,116.001709 
	C355.404755,117.277061 349.708588,117.918678 343.999786,117.936714 
	C337.742462,117.956482 336.469147,122.469154 335.000000,127.000000 
"/>
<path fill="none" opacity="1.000000" stroke="#000000" stroke-linecap="round" stroke-linejoin="round" stroke-width="3.000000"
	d="
M33.000000,210.000000 
	C36.132660,215.579346 41.684193,215.847107 47.001057,215.938339 
	C67.007133,216.281570 87.011169,216.003448 107.000000,215.000000 
"/>
<path fill="none" opacity="1.000000" stroke="#000000" stroke-linecap="round" stroke-linejoin="round" stroke-width="3.000000"
	d="
M662.000000,119.500000 
	C660.869629,117.212257 658.713623,117.876671 657.006592,118.060921 
	C650.496948,118.763527 644.290527,116.922050 638.024414,115.856583 
	C636.035034,115.518326 634.097473,115.510551 632.541138,116.107224 
	C626.046326,118.597260 619.318176,120.052803 612.486755,120.892319 
	C609.673889,121.237999 609.514526,122.554520 610.028442,124.492455 
	C612.424011,133.526276 613.105164,143.259384 619.065979,150.948853 
	C625.951355,159.830994 635.969055,163.715439 646.521545,165.895691 
	C655.701172,167.792313 665.003540,169.282150 674.504211,168.554703 
	C678.440613,168.253281 680.768372,171.493851 681.500000,177.500000 
	C682.349670,184.475449 676.528442,191.684158 669.498779,191.969925 
	C644.856506,192.971649 621.719055,199.370041 599.994751,210.990158 
	C599.536682,211.235184 599.000000,211.333328 598.500000,211.499985 
"/>
<path fill="none" opacity="1.000000" stroke="#000000" stroke-linecap="round" stroke-linejoin="round" stroke-width="3.000000"
	d="
M668.000000,147.000000 
	C668.000000,138.163528 668.000000,129.327042 668.000000,120.236397 
	C664.462219,119.689484 662.192932,120.325256 663.063904,123.984787 
	C664.764526,131.129608 663.622803,138.335419 664.008972,145.499512 
	C664.045959,146.185318 663.669434,146.999313 665.367798,148.010071 
	C667.406555,148.560654 670.752380,146.985550 674.122375,149.168030 
	C669.733215,155.549133 666.417175,162.074539 674.500000,168.000000 
"/>
<path fill="none" opacity="1.000000" stroke="#000000" stroke-linecap="round" stroke-linejoin="round" stroke-width="3.000000"
	d="
M241.500000,96.000000 
	C245.630234,90.871849 251.860336,89.902031 257.504211,89.830177 
	C262.017181,89.772743 267.310272,88.249405 271.552277,91.939911 
	C272.294739,92.585869 273.172638,92.994019 273.677368,94.238365 
	C269.002045,97.723816 264.715454,101.493301 262.883972,107.464409 
	C262.078461,110.090569 259.551239,111.203690 256.497406,111.052452 
	C250.328445,110.746941 244.048172,111.727837 238.027283,109.909660 
	C235.792175,109.234703 232.587006,109.438377 232.003235,105.999451 
	C231.483093,102.935425 233.527252,101.074074 235.536758,99.548416 
	C242.617157,94.172798 259.006683,94.802528 265.000000,100.500000 
"/>
<path fill="none" opacity="1.000000" stroke="#000000" stroke-linecap="round" stroke-linejoin="round" stroke-width="3.000000"
	d="
M601.500000,95.000000 
	C610.673828,98.661301 620.247498,100.521431 629.973999,102.154694 
	C639.622314,103.774834 648.627502,102.696274 657.500000,99.000000 
"/>
<path fill="none" opacity="1.000000" stroke="#000000" stroke-linecap="round" stroke-linejoin="round" stroke-width="3.000000"
	d="
M379.000000,52.000000 
	C376.146088,59.957542 374.668976,68.265450 373.068878,76.513367 
	C371.269531,85.788628 370.000000,95.166664 368.500000,104.500000 
"/>
<path fill="none" opacity="1.000000" stroke="#000000" stroke-linecap="round" stroke-linejoin="round" stroke-width="3.000000"
	d="
M641.500000,208.500000 
	C647.243408,213.278656 654.168335,213.232361 660.993835,212.880264 
	C663.690674,212.741150 665.061646,210.335419 664.995483,207.500107 
	C664.925903,204.519897 662.942688,204.061523 660.500793,203.977631 
	C654.721741,203.779129 649.065125,204.347076 643.481567,205.935196 
	C642.183960,206.304260 641.385315,206.773331 641.000000,208.000000 
"/>
<path fill="none" opacity="1.000000" stroke="#000000" stroke-linecap="round" stroke-linejoin="round" stroke-width="3.000000"
	d="
M394.000000,52.000000 
	C389.921692,68.760490 388.920319,85.943314 387.000000,103.000000 
"/>
<path fill="none" opacity="1.000000" stroke="#000000" stroke-linecap="round" stroke-linejoin="round" stroke-width="3.000000"
	d="
M662.000000,126.500000 
	C661.000000,130.166672 660.670898,134.210876 658.863220,137.423019 
	C654.844299,144.564240 647.776794,147.205002 639.996765,147.966690 
	C632.886597,148.662811 626.244629,146.914749 619.988403,143.521362 
	C618.602722,142.769791 617.283386,141.649872 615.500000,142.000000 
"/>
<path fill="none" opacity="1.000000" stroke="#000000" stroke-linecap="round" stroke-linejoin="round" stroke-width="3.000000"
	d="
M488.000000,64.500000 
	C490.748627,74.319672 493.063721,84.214302 492.978729,94.499825 
	C492.969086,95.667786 492.666656,96.833328 492.500000,98.000000 
"/>
<path fill="none" opacity="1.000000" stroke="#000000" stroke-linecap="round" stroke-linejoin="round" stroke-width="2.000000"
	d="
M639.000000,117.000000 
	C642.841125,125.584984 642.836121,133.163010 634.500000,138.500000 
"/>
<path fill="none" opacity="1.000000" stroke="#000000" stroke-linecap="round" stroke-linejoin="round" stroke-width="3.000000"
	d="
M654.000000,136.500000 
	C644.735291,141.727020 635.706421,140.766922 626.441040,136.117538 
	C622.368103,134.073776 617.825073,132.537064 613.000000,133.000000 
"/>
<path fill="none" opacity="1.000000" stroke="#000000" stroke-linecap="round" stroke-linejoin="round" stroke-width="3.000000"
	d="
M652.000000,119.000000 
	C651.758667,126.215576 651.548035,133.424408 656.500000,139.500000 
"/>
<path fill="none" opacity="1.000000" stroke="#000000" stroke-linecap="round" stroke-linejoin="round" stroke-width="3.000000"
	d="
M507.000000,111.000000 
	C501.935699,112.460030 496.679535,112.590088 491.494995,112.921608 
	C484.954346,113.339836 483.608917,114.024117 481.500031,120.000008 
	C480.242554,123.563179 481.373779,125.813812 485.002167,125.936043 
	C491.661255,126.160378 498.333496,125.973740 504.999908,126.014687 
	C507.238251,126.028435 508.665497,124.860313 509.467010,122.985901 
	C510.439362,120.712006 511.508392,118.391083 511.914856,115.985619 
	C512.441711,112.867577 510.963318,110.899673 507.500000,111.000000 
"/>
<path fill="none" opacity="1.000000" stroke="#000000" stroke-linecap="round" stroke-linejoin="round" stroke-width="3.000000"
	d="
M569.000000,115.000000 
	C566.930847,116.052788 564.378357,116.803528 564.056030,119.506676 
	C563.581299,123.487106 562.067566,127.529625 563.155090,131.457047 
	C563.715515,133.481049 565.644653,135.139328 568.501648,135.058151 
	C574.996399,134.873657 581.500000,135.000000 588.000000,135.000000 
	C588.166687,135.000000 588.336792,134.977753 588.499451,135.003403 
	C590.312683,135.289429 591.524170,134.134506 592.460876,132.968597 
	C595.162292,129.606247 593.585327,125.267189 594.803711,121.437553 
	C595.716614,118.568138 591.482971,115.049217 587.999817,115.016327 
	C581.833679,114.958092 575.666687,115.000000 569.500000,115.000000 
"/>
<path fill="none" opacity="1.000000" stroke="#000000" stroke-linecap="round" stroke-linejoin="round" stroke-width="3.000000"
	d="
M540.000000,175.000000 
	C534.307861,176.513260 528.761658,177.903763 523.911560,181.892471 
	C513.684204,190.303375 511.679779,202.695557 515.219299,212.420181 
	C520.123718,225.894730 531.907837,230.872192 541.493103,231.201096 
	C553.489685,231.612747 567.760376,220.531631 569.250183,207.027603 
	C571.086792,190.379852 559.075500,177.672821 546.994629,176.039764 
	C544.816772,175.745361 542.793823,174.506775 540.500000,175.000000 
"/>
<path fill="none" opacity="1.000000" stroke="#000000" stroke-linecap="round" stroke-linejoin="round" stroke-width="3.000000"
	d="
M162.000000,175.000000 
	C153.925430,176.076630 146.785324,179.023560 141.507950,185.506470 
	C128.341995,201.679916 136.226944,224.226471 154.540344,229.869034 
	C173.437088,235.691330 191.639557,221.696533 190.921417,202.002869 
	C190.424484,188.375336 179.777054,177.785660 168.500351,175.997742 
	C166.497849,175.680252 164.500000,175.333328 162.500000,174.999985 
"/>
<path fill="none" opacity="1.000000" stroke="#000000" stroke-linecap="round" stroke-linejoin="round" stroke-width="3.000000"
	d="
M538.000000,157.000000 
	C526.020081,158.598679 515.582947,163.212708 507.494781,172.495453 
	C499.241638,181.967514 495.400635,192.737106 495.872925,205.504700 
	C496.664795,226.911301 511.611084,245.123260 534.043396,248.729965 
	C557.225403,252.457214 578.661438,240.249832 585.993164,215.497971 
	C593.337830,190.702682 578.182739,164.991486 551.968384,158.120544 
	C547.688049,156.998627 543.064819,156.458054 538.500000,157.000000 
"/>
<path fill="none" opacity="1.000000" stroke="#000000" stroke-linecap="round" stroke-linejoin="round" stroke-width="3.000000"
	d="
M159.000000,157.000000 
	C152.884811,158.654419 146.666855,159.604462 140.941788,162.898834 
	C122.986763,173.230728 114.831444,189.035522 117.267693,208.967285 
	C120.245224,233.327454 140.319290,249.107040 161.500092,249.021317 
	C184.667572,248.927551 199.966156,237.492493 207.062088,215.520050 
	C214.797974,191.566025 199.550919,165.795593 175.991623,159.029160 
	C170.630310,157.489319 165.128983,156.602554 159.500000,157.000000 
"/>
</svg>