<?xml version="1.0" encoding="UTF-8"?>
<svg width="80px" height="80px" viewBox="0 0 80 80" version="1.1" xmlns="http://www.w3.org/2000/svg" xmlns:xlink="http://www.w3.org/1999/xlink">
    <!-- Generator: Sketch 60.1 (88133) - https://sketch.com -->
    <title>svg / services / enclosed</title>
    <desc>Created with Sketch.</desc>
    <g id="svg-/-services-/-enclosed" stroke="none" stroke-width="1" fill="none" fill-rule="evenodd">
        <path d="M55.0251543,24 C55.6334103,24 56.1266462,24.493128 56.1266462,25.1014919 L56.1266462,25.1014919 L56.1266462,26.5559279 L65.2948738,26.5559279 C67.4235537,26.5559279 69.2491856,28.0035598 69.7344296,30.0764037 L69.7344296,30.0764037 L71.5571455,37.8641753 L74.7475733,39.7166992 C75.0871253,39.9139072 75.2961053,40.2767872 75.2961053,40.6692592 L75.2961053,40.6692592 L75.2961053,51.3575867 C75.2961053,51.9659506 74.8028693,52.4590786 74.1946134,52.4590786 L74.1946134,52.4590786 L68.5632776,52.4590786 C68.0513577,54.9747225 65.8221298,56.8737944 63.1576619,56.8737944 C60.493194,56.8737944 58.2640741,54.9747225 57.7521542,52.4589706 L57.7521542,52.4589706 L19.4527472,52.4589706 C18.9408273,54.9746145 16.7115994,56.8737944 14.0471315,56.8737944 C11.3826636,56.8737944 9.15354375,54.9746145 8.64162377,52.4589706 L8.64162377,52.4589706 L5.10149195,52.4589706 C4.49323598,52.4589706 4,51.9658426 4,51.3574787 L4,51.3574787 L4,25.1014919 C4,24.493128 4.49323598,24 5.10149195,24 L5.10149195,24 Z M14.0471315,48.0444708 C12.2203116,48.0444708 10.7340157,49.5308748 10.7340157,51.3576947 C10.7340157,53.1845146 12.2203116,54.6709185 14.0471315,54.6709185 C15.8740594,54.6709185 17.3603553,53.1846226 17.3603553,51.3576947 C17.3603553,49.5307668 15.8740594,48.0444708 14.0471315,48.0444708 Z M63.1576619,48.0444708 C61.405038,48.0444708 59.966694,49.4127228 59.8526461,51.1370507 C59.8671181,51.2083307 59.8747861,51.2820947 59.8747861,51.3576947 C59.8747861,51.4332947 59.8672261,51.5070587 59.8526461,51.5783387 C59.966694,53.3026666 61.405038,54.6709185 63.1576619,54.6709185 C64.9845898,54.6709185 66.4708857,53.1846226 66.4708857,51.3576947 C66.4708857,49.5307668 64.9845898,48.0444708 63.1576619,48.0444708 Z M53.9237703,44.559095 L6.20298389,44.559095 L6.20298389,50.2560947 L8.64162377,50.2560947 C9.15354375,47.7403428 11.3826636,45.8413789 14.0471315,45.8413789 C16.7115994,45.8413789 18.9408273,47.7404508 19.4527472,50.2560947 L19.4527472,50.2560947 L53.9237703,50.2560947 L53.9237703,48.5090868 L27.9884188,48.5090868 C27.3801629,48.5090868 26.8869269,48.0159588 26.8869269,47.4075949 C26.8869269,46.7992309 27.3801629,46.3061029 27.9884188,46.3061029 L27.9884188,46.3061029 L53.9237703,46.3061029 L53.9237703,44.559095 Z M60.313482,28.7590198 L56.1267542,28.7590198 L56.1267542,50.2560947 L57.7521542,50.2560947 C58.2640741,47.7403428 60.493194,45.8413789 63.1576619,45.8413789 C65.8221298,45.8413789 68.0513577,47.7404508 68.5632776,50.2560947 L68.5632776,50.2560947 L73.0930134,50.2560947 L73.0930134,47.2312309 L69.8959976,47.2312309 C69.2877416,47.2312309 68.7945056,46.7381029 68.7945056,46.1297389 L68.7945056,46.1297389 L68.7945056,42.7606791 C68.7945056,42.1523151 69.2877416,41.6591871 69.8959976,41.6591871 L69.8959976,41.6591871 L73.0930134,41.6591871 L73.0930134,41.3036512 L70.2963535,39.6796552 L61.414974,39.6796552 C60.806718,39.6796552 60.313482,39.1865273 60.313482,38.5781633 L60.313482,38.5781633 L60.313482,28.7590198 Z M24.270843,46.3061029 C24.879099,46.3061029 25.372335,46.7992309 25.372335,47.4075949 C25.372335,48.0159588 24.879099,48.5090868 24.270843,48.5090868 L24.270843,48.5090868 L23.3413951,48.5090868 C22.7330311,48.5090868 22.2399031,48.0159588 22.2399031,47.4075949 C22.2399031,46.7992309 22.7331391,46.3061029 23.3413951,46.3061029 L23.3413951,46.3061029 Z M73.0930134,43.862171 L70.9974895,43.862171 L70.9974895,45.028247 L73.0930134,45.028247 L73.0930134,43.862171 Z M53.9237703,26.2030919 L6.20298389,26.2030919 L6.20298389,42.3561111 L53.9237703,42.3561111 L53.9237703,26.2030919 Z M65.2950898,28.7591278 L62.5165739,28.7591278 L62.5165739,37.4766713 L69.2039336,37.4766713 L67.5894417,30.5784957 C67.3388817,29.5072437 66.3952857,28.7590198 65.2950898,28.7591278 L65.2950898,28.7591278 Z" id="ico-/-services-/-enclosed" fill="#ffffff"></path>
    </g>
</svg>
